<svg width="321" height="100" viewBox="0 0 321 100" fill="none" xmlns="http://www.w3.org/2000/svg">
<path d="M52.7251 74.3262C52.7251 54.7043 68.6318 38.7976 88.2537 38.7976V56.9172C88.2537 76.5391 72.347 92.4458 52.7251 92.4458V74.3262Z" fill="white"/>
<path d="M46.4712 74.3262C46.4712 54.7043 30.5645 38.7976 10.9426 38.7976V56.9172C10.9426 76.5391 26.8493 92.4458 46.4712 92.4458V74.3262Z" fill="white"/>
<path d="M49.4043 6.823C52.2317 20.7534 63.2093 31.7245 77.1416 34.5486C63.2092 37.3726 52.2317 48.3447 49.4043 62.2751C46.5769 48.3449 35.6 37.3728 21.668 34.5486C35.5999 31.7243 46.5769 20.7532 49.4043 6.823Z" fill="white"/>
<path d="M126.34 69.7087V42.2522H130.518V69.7087H126.34ZM128.329 69.7087V65.8887H145.838V69.7087H128.329ZM128.329 57.5324V53.7123H143.251V57.5324H128.329ZM128.329 46.0723V42.2522H145.639V46.0723H128.329ZM162.325 69.7087L153.213 42.2522H157.271L166.424 69.7087H162.325ZM150.666 69.7087V42.2522H154.645V69.7087H150.666ZM163.917 69.7087L172.154 42.2522H176.093L167.617 69.7087H163.917ZM174.82 69.7087V42.2522H178.998V69.7087H174.82ZM186.968 60.1586V56.3386H194.688C196.81 56.3386 198.375 55.9142 199.383 55.0653C200.392 54.1898 200.896 52.9032 200.896 51.2054C200.896 49.4811 200.392 48.1945 199.383 47.3456C198.375 46.4967 196.81 46.0723 194.688 46.0723H186.968V42.2522H195.086C197.129 42.2522 198.906 42.6103 200.418 43.3266C201.957 44.0429 203.137 45.0775 203.96 46.4304C204.808 47.7568 205.233 49.3485 205.233 51.2054C205.233 53.0624 204.808 54.6673 203.96 56.0203C203.137 57.3467 201.957 58.368 200.418 59.0843C198.906 59.8005 197.129 60.1586 195.086 60.1586H186.968ZM184.979 69.7087V42.2522H189.157V69.7087H184.979ZM209.382 69.7087V42.2522H213.561V69.7087H209.382ZM211.372 69.7087V65.8887H228.881V69.7087H211.372ZM211.372 57.5324V53.7123H226.294V57.5324H211.372ZM211.372 46.0723V42.2522H228.682V46.0723H211.372ZM235.698 59.3628V55.5428H243.418C245.381 55.5428 246.84 55.1581 247.795 54.3888C248.75 53.593 249.227 52.3992 249.227 50.8075C249.227 49.2158 248.75 48.0353 247.795 47.266C246.84 46.4702 245.381 46.0723 243.418 46.0723H235.698V42.2522H243.816C246.76 42.2522 249.121 43.0083 250.899 44.5204C252.676 46.0325 253.565 48.1282 253.565 50.8075C253.565 53.4603 252.676 55.556 250.899 57.0947C249.121 58.6068 246.76 59.3628 243.816 59.3628H235.698ZM233.708 69.7087V42.2522H237.887V69.7087H233.708ZM249.267 69.7087L241.826 57.8109H246.402L254.162 69.7087H249.267ZM276.252 69.7087V42.2522H280.43V69.7087H276.252ZM258.345 69.7087V42.2522H262.524V69.7087H258.345ZM260.335 57.5324V53.7123H278.44V57.5324H260.335ZM286.402 69.7087V42.2522H290.58V69.7087H286.402ZM314.849 69.7087L305.657 42.2522H309.715L319.226 69.7087H314.849ZM294.157 69.7087L303.667 42.2522H307.407L298.414 69.7087H294.157ZM299.369 62.1085V58.2884H314.013V62.1085H299.369Z" fill="white"/>
</svg>
