<svg width="64" height="64" viewBox="0 0 64 64" fill="none" xmlns="http://www.w3.org/2000/svg">
<path d="M0 32C0 14.3269 14.3269 0 32 0C49.6731 0 64 14.3269 64 32C64 49.6731 49.6731 64 32 64C14.3269 64 0 49.6731 0 32Z" fill="white"/>
<path d="M32.92 22.2601L39.43 25.7701C40.19 26.1801 40.19 27.3501 39.43 27.7601L32.92 31.2701C32.34 31.5801 31.66 31.5801 31.08 31.2701L24.57 27.7601C23.81 27.3501 23.81 26.1801 24.57 25.7701L31.08 22.2601C31.66 21.9501 32.34 21.9501 32.92 22.2601Z" stroke="#121212" stroke-width="1.5" stroke-linecap="round" stroke-linejoin="round"/>
<path d="M23.61 30.1299L29.66 33.1599C30.41 33.5399 30.89 34.3099 30.89 35.1499V40.8699C30.89 41.6999 30.02 42.2299 29.28 41.8599L23.23 38.8299C22.48 38.4499 22 37.6799 22 36.8399V31.1199C22 30.2899 22.87 29.7599 23.61 30.1299Z" stroke="#292D32" stroke-width="1.5" stroke-linecap="round" stroke-linejoin="round"/>
<path d="M40.39 30.1299L34.34 33.1599C33.59 33.5399 33.11 34.3099 33.11 35.1499V40.8699C33.11 41.6999 33.98 42.2299 34.72 41.8599L40.77 38.8299C41.52 38.4499 42 37.6799 42 36.8399V31.1199C42 30.2899 41.13 29.7599 40.39 30.1299Z" stroke="#292D32" stroke-width="1.5" stroke-linecap="round" stroke-linejoin="round"/>
</svg>
