<svg width="64" height="64" viewBox="0 0 64 64" fill="none" xmlns="http://www.w3.org/2000/svg">
<path d="M0 32C0 14.3269 14.3269 0 32 0C49.6731 0 64 14.3269 64 32C64 49.6731 49.6731 64 32 64C14.3269 64 0 49.6731 0 32Z" fill="white"/>
<path d="M40.95 34.55L34.56 40.94C33.16 42.34 30.86 42.34 29.45 40.94L23.06 34.55C21.66 33.15 21.66 30.85 23.06 29.44L29.45 23.05C30.85 21.65 33.15 21.65 34.56 23.05L40.95 29.44C42.35 30.85 42.35 33.15 40.95 34.55Z" stroke="#121212" stroke-width="1.5" stroke-linecap="round" stroke-linejoin="round"/>
</svg>
