<svg width="200" height="50" viewBox="0 0 200 50" fill="none" xmlns="http://www.w3.org/2000/svg">
<g clip-path="url(#clip0_10797_3)">
<path d="M65.4741 26.7504L62.0366 30.6025V35.3485H57.8247V14.3923H62.0366V24.9013L71.4823 14.3923H76.53L68.2923 23.6072L77.3972 35.3487H72.0088L65.4741 26.7504ZM87.8335 20.4019V24.2234C85.5419 24.3466 83.8694 25.0247 82.5997 26.4423V35.3487H78.543V20.6485H82.5997V22.3432C83.9314 21.0802 85.6348 20.4019 87.8335 20.4019ZM93.254 20.4019V35.3487H89.197V20.4019H93.254ZM93.1771 14.3721V18.287H89.243V14.3721H93.1771ZM102.261 32.1597C103.772 32.1597 104.83 31.7685 104.83 30.9565C104.83 30.3848 104.347 29.9034 103.349 29.7233L100.235 29.1818C98.1194 28.8207 95.973 27.6779 95.973 24.9702C95.973 22.0226 98.4821 20.2477 102.14 20.2477C104.739 20.2477 108.185 20.9697 108.518 25.0907H104.86C104.77 23.7974 103.53 23.3759 102.14 23.3759C100.628 23.3759 99.9026 23.8871 99.9026 24.5791C99.9026 25.121 100.296 25.7524 101.686 25.9933L104.286 26.4143C106.523 26.8055 108.608 27.8279 108.608 30.5954C108.608 33.7841 105.827 35.3485 102.17 35.3485C98.9958 35.3485 95.7914 34.1751 95.4891 29.9938L99.1468 30.0241C99.3886 31.6485 100.568 32.1597 102.261 32.1597H102.261ZM121.758 34.7125C120.419 35.2271 119.323 35.3485 118.258 35.3485C114.363 35.3485 112.171 32.9257 112.171 29.2312V23.8709H109.067V20.5396H112.171V14.3919H116.158V20.5396H121.484V23.8709H116.158V29.2312C116.158 30.9272 117.223 31.684 118.714 31.684C119.627 31.684 120.479 31.4117 121.21 31.1089L121.758 34.7125ZM137.631 20.6396V34.9878H133.672V34.1753C132.553 34.8974 131.133 35.3485 129.531 35.3485C125.54 35.3485 122.336 31.9791 122.336 27.8284C122.336 23.6475 125.541 20.2787 129.531 20.2787C131.133 20.2787 132.553 20.7295 133.672 21.4518V20.6393L137.631 20.6396ZM133.672 30.0844V25.5425C132.735 24.2193 131.435 23.8581 130.135 23.8581C127.868 23.8581 126.296 25.6627 126.296 27.8286C126.296 29.9644 127.868 31.7692 130.135 31.7692C131.435 31.7692 132.735 31.4083 133.672 30.0849V30.0844ZM143.567 14.3923V35.3487H139.51V14.3923H143.567ZM160.633 27.8284C160.633 32.2503 157.489 35.3485 152.986 35.3485C148.451 35.3485 145.308 32.2501 145.308 27.8284C145.308 23.3766 148.452 20.2787 152.986 20.2787C157.489 20.2787 160.633 23.3766 160.633 27.8284ZM156.673 27.8284C156.673 25.4823 155.162 23.8579 152.986 23.8579C150.779 23.8579 149.267 25.4823 149.267 27.8284C149.267 30.145 150.779 31.769 152.986 31.769C155.162 31.769 156.673 30.145 156.673 27.8284ZM177.106 20.6298V34.6751C177.106 39.0347 174.107 41.6683 169.931 41.6683C165.903 41.6683 162.903 39.1811 162.609 35.6697H166.52C166.697 37.1621 167.932 38.1861 169.931 38.1861C171.813 38.1861 173.254 36.9574 173.254 34.6751V32.89C172.166 33.5924 170.784 34.0023 169.225 34.0023C165.344 34.0023 162.227 30.8711 162.227 27.2719C162.227 23.0876 165.344 20.2787 169.225 20.2787C170.784 20.2787 172.166 20.6881 173.254 21.3901V20.6296H177.106L177.106 20.6298ZM173.254 28.9398V25.3407C172.342 24.0241 171.078 23.5849 169.814 23.5849C167.608 23.5849 166.079 25.0481 166.079 27.2719C166.079 28.9109 167.608 30.6954 169.814 30.6954C171.078 30.6954 172.342 30.2566 173.254 28.9398ZM183.282 20.2787V35.3485H179.225V20.2787H183.282ZM183.22 14.3923V18.3072H179.286V14.3923H183.22ZM195.95 29.453H200C199.547 32.9123 196.524 35.3485 192.806 35.3485C188.484 35.3485 185.128 32.0998 185.128 27.8284C185.128 23.5569 188.484 20.2787 192.806 20.2787C196.524 20.2787 199.547 22.7451 200 26.2044H195.95C195.647 24.8206 194.438 23.8579 192.806 23.8579C190.539 23.8579 189.088 25.6326 189.088 27.8284C189.088 30.0241 190.539 31.769 192.806 31.769C194.438 31.769 195.647 30.8368 195.95 29.4532V29.453Z" fill="#0A0A0C"/>
<path d="M3.91579 9.84961L0 17.2297L3.99405 25.0014L0.139809 32.501L3.99405 40.0006L11.7027 25.0014L3.91579 9.84961Z" fill="url(#paint0_linear_10797_3)"/>
<path d="M25.82 37.5007L28.4045 42.5004H15.557L24.5503 25.0013L15.557 7.50211H28.4045L25.8351 12.502L29.6894 20.0016L39.9673 0H9.13313L6.4834 5.00216L16.7615 25.0013L6.56371 45.0003L9.13313 50H39.9673L29.6894 30.0009L25.82 37.5007Z" fill="url(#paint1_linear_10797_3)"/>
<path d="M50.2454 45.0001H42.5369L32.2588 25.001L42.5369 5.00195H50.2454L39.9673 24.9999L50.2454 45.0001Z" fill="url(#paint2_linear_10797_3)"/>
</g>
<defs>
<linearGradient id="paint0_linear_10797_3" x1="-11.2714" y1="42.4384" x2="33.889" y2="-10.0162" gradientUnits="userSpaceOnUse">
<stop stop-color="#0273E7"/>
<stop offset="1" stop-color="#04D3D1"/>
</linearGradient>
<linearGradient id="paint1_linear_10797_3" x1="0.554908" y1="52.5995" x2="46.0701" y2="-0.267161" gradientUnits="userSpaceOnUse">
<stop stop-color="#0273E7"/>
<stop offset="1" stop-color="#04D3D1"/>
</linearGradient>
<linearGradient id="paint2_linear_10797_3" x1="13.3363" y1="63.0207" x2="58.6428" y2="10.3965" gradientUnits="userSpaceOnUse">
<stop stop-color="#0273E7"/>
<stop offset="1" stop-color="#04D3D1"/>
</linearGradient>
<clipPath id="clip0_10797_3">
<rect width="200" height="50" fill="white"/>
</clipPath>
</defs>
</svg>
