<svg width="165" height="34" viewBox="0 0 165 34" fill="none" xmlns="http://www.w3.org/2000/svg">
<path d="M53.0355 7.12964C51.1137 6.39051 49.2975 6.02094 47.5869 6.02094C45.8975 6.02094 44.5776 6.37995 43.6273 7.09797C42.677 7.81599 42.2018 8.80855 42.2018 10.0756C42.2018 11.6173 43.0043 12.8105 44.6093 13.6552C45.3273 14.0142 46.1087 14.3521 46.9534 14.6689C47.8193 14.9645 48.6851 15.3024 49.5509 15.6825C50.4168 16.0627 51.2087 16.4956 51.9268 16.9813C52.6448 17.467 53.2255 18.1428 53.669 19.0087C54.1125 19.8534 54.3342 20.941 54.3342 22.2714C54.3342 23.5808 53.9647 24.7 53.2255 25.6292C52.4864 26.5585 51.5889 27.192 50.5329 27.5299C49.4982 27.8467 48.2839 28.0051 46.89 28.0051C44.2925 28.0051 42.0751 27.3609 40.2378 26.0727L40.3962 25.8193C41.0931 26.3684 41.9906 26.8224 43.0888 27.1814C44.208 27.5193 45.3484 27.6883 46.5099 27.6883C48.2205 27.6883 49.6777 27.2976 50.8814 26.5162C52.1063 25.7137 52.7187 24.5417 52.7187 23C52.7187 21.3106 51.9162 19.9907 50.3112 19.0403C49.5932 18.618 48.8013 18.2273 47.9354 17.8683C47.0907 17.5093 46.2354 17.1397 45.3695 16.7596C44.5037 16.3583 43.7117 15.9148 42.9937 15.4291C41.3887 14.3732 40.5862 12.8738 40.5862 10.9309C40.5862 9.3893 41.1036 8.14332 42.1384 7.193C43.1732 6.22156 44.7254 5.73584 46.795 5.73584C48.8857 5.73584 51.0081 6.09485 53.1622 6.81287L53.0355 7.12964Z" fill="white" fill-opacity="0.5"/>
<path d="M68.2612 27.9734C67.3953 27.9734 66.7301 27.7833 66.2655 27.4032C65.822 27.0231 65.5897 26.6429 65.5686 26.2628L65.5369 25.7243V15.7776C65.5369 14.1092 65.104 13.0428 64.2381 12.5782C63.7946 12.367 63.2456 12.2614 62.5909 12.2614C61.2393 12.2614 60.025 12.7999 58.948 13.8769C57.871 14.9328 57.3325 15.8832 57.3325 16.7279V27.9734H55.115V12.1347H57.3325V15.7459C57.6915 14.8378 58.3567 13.9931 59.3281 13.2117C60.2996 12.4092 61.366 12.008 62.5275 12.008C63.6891 12.008 64.6288 12.1241 65.3468 12.3564C66.086 12.5676 66.6245 12.8738 66.9624 13.2751C67.4903 13.9297 67.7543 14.7745 67.7543 15.8093V25.7243C67.7543 26.3367 67.8705 26.8119 68.1028 27.1498C68.3562 27.4665 68.6096 27.6355 68.863 27.6566L69.2115 27.72H70.1935V27.9734H68.2612Z" fill="white" fill-opacity="0.5"/>
<path d="M76.4443 28.1001C74.2269 28.1001 72.4213 27.4665 71.0275 26.1994C69.6337 24.9323 68.9368 22.9789 68.9368 20.3391C68.9368 17.6993 69.6548 15.6509 71.0908 14.1937C72.548 12.7365 74.3853 12.008 76.6027 12.008C78.8412 12.008 80.6574 12.6415 82.0512 13.9086C83.445 15.1757 84.1419 17.1291 84.1419 19.7689C84.1419 22.4087 83.4133 24.4572 81.9562 25.9143C80.5201 27.3715 78.6829 28.1001 76.4443 28.1001ZM76.6661 12.2614C75.0611 12.2614 73.7306 12.9794 72.6747 14.4154C71.6188 15.8304 71.0908 17.8155 71.0908 20.3708C71.0908 22.905 71.5766 24.7845 72.548 26.0094C73.5194 27.2342 74.8077 27.8467 76.4126 27.8467C78.0176 27.8467 79.3481 27.1392 80.404 25.7243C81.4599 24.2882 81.9879 22.3031 81.9879 19.7689C81.9879 17.2136 81.5021 15.3235 80.5307 14.0987C79.5593 12.8738 78.271 12.2614 76.6661 12.2614Z" fill="white" fill-opacity="0.5"/>
<path d="M105.945 12.3247L106.135 12.1347C106.22 12.1769 106.326 12.3036 106.452 12.5148C106.6 12.726 106.685 12.9161 106.706 13.085C106.748 13.2539 106.769 13.4123 106.769 13.5602C106.769 14.1304 106.642 14.7111 106.389 15.3024L100.624 27.9734H100.307L95.7453 15.7142L90.17 27.9734H89.8533L83.9613 12.1347H86.1787L91.0253 25.2491L95.5869 15.3341L94.4148 12.1347H96.6322L101.479 25.2491L106.072 15.3024C106.326 14.8589 106.452 14.331 106.452 13.7185C106.452 13.1061 106.283 12.6415 105.945 12.3247Z" fill="white" fill-opacity="0.5"/>
<path d="M76.603 11.8784C78.8672 11.8785 80.7163 12.5204 82.1382 13.813C83.5683 15.1131 84.271 17.1079 84.271 19.769C84.271 22.4326 83.5347 24.5168 82.0474 26.0044C80.5846 27.4886 78.7133 28.229 76.4438 28.229C74.2007 28.2289 72.3625 27.5876 70.9409 26.2954C69.5108 24.9953 68.8072 23.0004 68.8071 20.3394C68.8071 17.676 69.5324 15.5908 70.9985 14.103L70.9995 14.1021C72.4828 12.6188 74.3543 11.8784 76.603 11.8784ZM46.7954 5.60693C48.9009 5.60698 51.0368 5.96805 53.2026 6.68994L53.3335 6.73389L53.2817 6.86084L53.1558 7.17725L53.1079 7.29639L52.9888 7.25049C51.0791 6.51603 49.2791 6.14997 47.5874 6.1499C45.9149 6.1499 44.6258 6.50562 43.7056 7.20068C42.7899 7.89253 42.3306 8.84609 42.3306 10.0757C42.3306 11.5592 43.0973 12.7125 44.6675 13.5396L45.2144 13.8032C45.7721 14.0625 46.3655 14.3103 46.9946 14.5464C47.864 14.8433 48.734 15.1824 49.603 15.564C50.4754 15.9469 51.2745 16.384 51.9995 16.8745C52.7371 17.3736 53.3307 18.0667 53.7827 18.9487H53.7837C54.2398 19.8177 54.4633 20.9277 54.4634 22.271C54.4634 23.6063 54.0858 24.7551 53.3267 25.7095C52.5729 26.6571 51.6546 27.3066 50.5728 27.6528L50.5708 27.6538C49.5208 27.9752 48.2932 28.1343 46.8901 28.1343C44.2704 28.1343 42.0259 27.484 40.1636 26.1782L40.063 26.1079L40.1284 26.0044L40.2866 25.7505L40.3628 25.6284L40.4761 25.7183C41.1576 26.2551 42.0398 26.7026 43.1265 27.0581L43.5425 27.1753C44.5158 27.4312 45.5051 27.5591 46.5103 27.5591C48.2006 27.559 49.632 27.173 50.811 26.4077L51.0259 26.2583C52.0683 25.4884 52.5892 24.4073 52.5894 23.0005C52.5894 21.4645 51.9099 20.2425 50.5308 19.3296L50.2456 19.1519C49.5334 18.7329 48.7471 18.3448 47.8862 17.9878L47.8853 17.9868C47.0401 17.6276 46.1841 17.2578 45.3179 16.8774L45.3149 16.8765C44.4437 16.4727 43.6455 16.0265 42.9214 15.5366V15.5356C41.2807 14.4556 40.4576 12.9162 40.4575 10.9312C40.4575 9.35728 40.9871 8.07547 42.0513 7.09814C43.119 6.09639 44.7085 5.60693 46.7954 5.60693ZM62.5278 11.8784C63.6935 11.8784 64.6463 11.995 65.3813 12.2319H65.3823C66.0412 12.4202 66.5565 12.6863 66.9165 13.0366L67.061 13.1919L67.063 13.1938C67.6134 13.8764 67.8833 14.7519 67.8833 15.8091V25.7241C67.8833 26.3201 67.9964 26.7648 68.2065 27.0728C68.4494 27.3752 68.6726 27.511 68.8735 27.5278L68.8862 27.5288L68.8628 27.6548L68.8862 27.5298L69.2192 27.5903H70.3228V28.103H68.2612C67.3786 28.103 66.6801 27.909 66.1841 27.5034L66.1812 27.5015C65.782 27.1593 65.5318 26.8023 65.4595 26.4302L65.4399 26.27L65.4077 25.7319V15.7778C65.4077 14.126 64.9792 13.1258 64.1821 12.6948L64.019 12.6245C63.6269 12.4704 63.1523 12.3902 62.5913 12.3901C61.2785 12.3901 60.0957 12.9122 59.0396 13.9683L59.0386 13.9692C57.9684 15.0184 57.4614 15.9369 57.4614 16.728V28.103H54.9858V12.0054H57.4614V15.1714C57.8561 14.4389 58.4505 13.7516 59.2456 13.1118C60.2381 12.2919 61.3337 11.8784 62.5278 11.8784ZM106.193 12.019C106.259 12.052 106.321 12.11 106.377 12.1782C106.435 12.2469 106.495 12.3355 106.558 12.4409L106.663 12.604C106.753 12.7596 106.81 12.9096 106.831 13.0532C106.875 13.2306 106.898 13.4 106.898 13.5601C106.898 14.1498 106.767 14.7477 106.507 15.353L106.506 15.356L100.741 28.0269L100.707 28.103H100.217L100.186 28.0181L95.7329 16.0522L90.2876 28.0269L90.2534 28.103H89.7632L89.7319 28.0181L83.8403 12.1802L83.7749 12.0054H86.269L86.3003 12.0903L91.0376 24.9106L95.4468 15.3276L94.2935 12.1792L94.23 12.0054H96.7222L96.7534 12.0903L101.492 24.9116L105.955 15.2485L105.959 15.2378C106.2 14.8174 106.323 14.3126 106.323 13.7183C106.323 13.1298 106.161 12.7046 105.857 12.4194L105.759 12.3276L105.854 12.2329L106.044 12.0435L106.11 11.9771L106.193 12.019ZM76.6665 12.3901C75.1077 12.3901 73.8135 13.0847 72.7788 14.4917L72.7778 14.4927C71.7447 15.8772 71.2202 17.8313 71.2202 20.3706C71.2202 22.8924 71.7039 24.7375 72.6489 25.9292C73.5951 27.1222 74.8458 27.7173 76.4126 27.7173C77.9723 27.7173 79.266 27.033 80.3003 25.647C81.334 24.2408 81.8589 22.2865 81.8589 19.769C81.8589 17.2258 81.3742 15.3707 80.4292 14.1792C79.4831 12.9863 78.2331 12.3902 76.6665 12.3901Z" stroke="white" stroke-opacity="0.5" stroke-width="0.258402"/>
<path d="M110.746 10.6458V12.1347H113.249V12.6465H110.746V27.9734H108.529V12.6465H107.864V12.1347H108.529V10.6458C108.529 8.34395 109.025 6.70729 110.018 5.73585C111.01 4.74329 112.615 4.23645 114.833 4.21533C113.376 4.23645 112.33 4.98615 111.697 5.95759C111.063 6.90791 110.746 8.47066 110.746 10.6458Z" fill="white" fill-opacity="0.5"/>
<path d="M118.226 27.9734C116.368 27.9734 115.196 27.4877 114.71 26.5162C114.604 26.305 114.551 26.115 114.551 25.946L114.833 4.21533L116.769 4.24701V25.7243C116.769 26.3367 116.885 26.8119 117.117 27.1498C117.371 27.4665 117.624 27.6355 117.878 27.6566L118.226 27.72H119.208V27.9734H118.226Z" fill="white" fill-opacity="0.5"/>
<path d="M132.477 27.9734C131.041 27.9734 130.059 27.6988 129.531 27.1498C129.045 26.6852 128.802 26.2839 128.802 25.946V25.2808C127.767 27.1603 126.109 28.1001 123.829 28.1001C121.168 28.1001 119.658 26.8964 119.299 24.4889C119.257 24.2355 119.235 23.982 119.235 23.7286C119.235 23.4541 119.278 23.1584 119.362 22.8416C119.447 22.5249 119.689 22.1764 120.091 21.7963C120.893 21.036 122.657 20.5714 125.381 20.4025C126.057 20.3391 126.68 20.3075 127.25 20.3075C127.82 20.3075 128.337 20.3286 128.802 20.3708V15.1124C128.76 15.0912 128.76 14.9962 128.802 14.8273C128.844 14.6372 128.802 14.4049 128.675 14.1304C128.57 13.8347 128.422 13.5496 128.232 13.2751C128.042 13.0005 127.704 12.7682 127.218 12.5782C126.732 12.367 126.099 12.2614 125.318 12.2614C124.536 12.2614 123.618 12.4092 122.562 12.7049C121.527 12.9794 120.767 13.254 120.281 13.5285L120.154 13.3067C122.034 12.4409 123.945 12.008 125.888 12.008C128.063 12.008 129.499 12.3987 130.196 13.18C130.745 13.7925 131.019 14.4366 131.019 15.1124V25.7243C131.019 26.3367 131.136 26.8119 131.368 27.1498C131.621 27.4665 131.875 27.6355 132.128 27.6566L132.477 27.72H133.459V27.9734H132.477ZM124.336 27.8467C125.455 27.8467 126.458 27.4665 127.345 26.7063C128.253 25.9249 128.739 25.1752 128.802 24.4572V20.6242C128.232 20.582 127.651 20.5609 127.06 20.5609C126.49 20.5609 125.919 20.5926 125.349 20.6559C123.744 20.846 122.699 21.205 122.213 21.7329C121.727 22.2609 121.485 22.9895 121.485 23.9187C121.485 24.0876 121.495 24.2777 121.516 24.4889C121.706 26.7274 122.646 27.8467 124.336 27.8467Z" fill="white" fill-opacity="0.5"/>
<path d="M136.152 4.21533V19.9907L143.121 12.1347H143.438L138.274 17.9633L145.085 27.9734H142.868L137.007 19.3571L136.152 20.3391V27.9734H133.935V4.21533H136.152Z" fill="white" fill-opacity="0.5"/>
<path d="M146.748 20.2441C146.748 22.8628 147.202 24.7845 148.11 26.0094C149.039 27.2342 150.253 27.8467 151.753 27.8467C153.864 27.8467 155.744 27.5299 157.391 26.8964L157.486 27.1181C155.797 27.7728 153.886 28.1001 151.753 28.1001C149.641 28.1001 147.92 27.4665 146.589 26.1995C145.259 24.9324 144.593 22.9789 144.593 20.3391C144.593 17.6993 145.29 15.6509 146.684 14.1937C148.078 12.7366 149.852 12.008 152.006 12.008C153.738 12.008 155.195 12.5254 156.377 13.5602C157.56 14.595 158.151 16.126 158.151 18.1534C158.151 18.259 158.151 18.3646 158.151 18.4702H146.843C146.779 19.0404 146.748 19.6317 146.748 20.2441ZM155.997 18.2167C155.976 16.1894 155.586 14.69 154.825 13.7186C154.065 12.7471 153.083 12.2614 151.879 12.2614C150.676 12.2614 149.598 12.7894 148.648 13.8453C147.719 14.9012 147.128 16.3583 146.874 18.2167H155.997Z" fill="white" fill-opacity="0.5"/>
<path d="M125.888 11.8784C126.982 11.8784 127.898 11.9769 128.63 12.1763C129.363 12.3755 129.922 12.6786 130.292 13.0942C130.858 13.7248 131.149 14.3988 131.149 15.1128V25.7241C131.149 26.3176 131.261 26.761 131.469 27.0688L131.559 27.1753C131.738 27.3733 131.906 27.4804 132.062 27.5161L132.139 27.5278L132.152 27.5288L132.151 27.5298L132.484 27.5903H133.587V28.103H132.477C131.034 28.103 130.004 27.829 129.437 27.2397V27.2388C128.951 26.7725 128.672 26.3397 128.672 25.9458V25.7456C128.181 26.5055 127.574 27.0946 126.846 27.5073C125.994 27.9902 124.987 28.229 123.829 28.229C122.48 28.229 121.405 27.9243 120.62 27.2983C119.834 26.6716 119.355 25.7363 119.171 24.5103L119.143 24.3149C119.119 24.1197 119.106 23.9244 119.106 23.729C119.106 23.4413 119.151 23.1337 119.238 22.8081C119.331 22.4575 119.594 22.089 120.001 21.7026C120.426 21.3009 121.091 20.9871 121.982 20.7524C122.874 20.5175 124.004 20.3588 125.369 20.2739L125.869 20.2319C126.358 20.1961 126.819 20.1782 127.25 20.1782C127.766 20.1782 128.24 20.1964 128.672 20.231V15.1548C128.667 15.1449 128.66 15.1359 128.657 15.1265C128.644 15.0924 128.641 15.0564 128.641 15.0249C128.641 14.9617 128.654 14.8838 128.676 14.7964C128.709 14.6458 128.678 14.4447 128.558 14.1841L128.553 14.1743L128.675 14.1304L128.553 14.1733C128.452 13.8892 128.309 13.6138 128.125 13.3481C127.956 13.1037 127.645 12.8842 127.171 12.6987L127.167 12.6968C126.703 12.4952 126.089 12.3902 125.318 12.3901C124.552 12.3901 123.645 12.5359 122.596 12.8296H122.594C121.562 13.1033 120.815 13.3749 120.344 13.6411L120.233 13.7046L120.168 13.5923L120.042 13.3706L119.972 13.2485L120.1 13.189C121.995 12.3159 123.926 11.8784 125.888 11.8784ZM152.006 11.8784C153.766 11.8785 155.254 12.4059 156.462 13.4634C157.681 14.5294 158.281 16.1008 158.281 18.1538V18.5991H146.96C146.906 19.1287 146.876 19.6768 146.876 20.2437C146.876 22.8515 147.33 24.7395 148.212 25.9312C149.118 27.1247 150.295 27.7173 151.752 27.7173C153.851 27.7173 155.715 27.4027 157.345 26.7759L157.46 26.731L157.51 26.8452L157.605 27.0669L157.658 27.1899L157.533 27.2388C155.826 27.9001 153.898 28.229 151.752 28.229C149.613 28.229 147.858 27.5865 146.5 26.2935C145.135 24.993 144.464 22.9987 144.464 20.3394C144.464 17.6769 145.167 15.5919 146.59 14.104C148.01 12.6195 149.82 11.8784 152.006 11.8784ZM136.281 4.08643V19.6499L143.024 12.0493L143.063 12.0054H143.725L143.535 12.2202L138.437 17.9731L145.192 27.9009L145.33 28.103H142.799L142.76 28.0464L136.995 19.5679L136.281 20.3882V28.103H133.805V4.08643H136.281ZM127.06 20.6899C126.495 20.6899 125.929 20.7209 125.364 20.7837C124.567 20.8781 123.915 21.0145 123.404 21.1899C122.891 21.3659 122.531 21.5789 122.308 21.8208C121.85 22.3185 121.614 23.0121 121.614 23.9185C121.614 24.0004 121.616 24.0881 121.622 24.1812L121.645 24.4761V24.478C121.739 25.584 122.017 26.3934 122.462 26.9243C122.904 27.45 123.522 27.7173 124.335 27.7173C125.422 27.7173 126.396 27.349 127.26 26.6079C128.154 25.8393 128.609 25.1224 128.672 24.4575V20.7446C128.144 20.7084 127.607 20.6899 127.06 20.6899ZM151.879 12.3901C150.719 12.3901 149.675 12.8981 148.745 13.9321L148.744 13.9312C147.861 14.9349 147.286 16.3172 147.024 18.0874H155.865C155.829 16.1389 155.442 14.7167 154.723 13.7983C153.987 12.8574 153.042 12.3902 151.879 12.3901ZM116.898 25.7241C116.898 26.3201 117.011 26.7648 117.221 27.0728C117.464 27.3752 117.687 27.5111 117.888 27.5278L117.901 27.5288V27.5298L118.234 27.5903H119.337V28.103H118.226C116.355 28.103 115.114 27.6142 114.594 26.5737C114.483 26.3514 114.422 26.1411 114.422 25.9458V25.9448L114.702 4.3501C113.363 4.41258 112.399 5.1168 111.805 6.02783L111.804 6.02881C111.193 6.94603 110.875 8.4768 110.875 10.646V12.0054H113.378V12.7759H110.875V28.103H108.4V12.7759H107.735V12.0054H108.4V10.646C108.4 8.33108 108.898 6.65067 109.927 5.64307C110.935 4.6362 112.538 4.12946 114.705 4.09033L114.706 4.08447L114.834 4.08643L116.771 4.11768L116.898 4.11963V25.7241Z" stroke="white" stroke-opacity="0.5" stroke-width="0.258402"/>
<path d="M161.075 3.88275V4.71963H160.123V7.26576H159.22V4.71963H158.269V3.88275H161.075Z" fill="white" fill-opacity="0.5"/>
<path d="M164.783 3.83203V7.28098H163.88V5.60722L163.218 6.39338H162.948L162.286 5.60722V7.28098H161.383V3.83203H161.702L163.083 5.30291L164.464 3.83203H164.783Z" fill="white" fill-opacity="0.5"/>
<path fill-rule="evenodd" clip-rule="evenodd" d="M15.5131 22.463L15.4993 33.3398L17.7986 33.3427L17.8125 22.4152L22.0069 32.5056L24.13 31.6231L19.9645 21.6019L27.6285 29.2855L29.2564 27.6617L21.5595 19.9452L31.6259 24.1229L32.5072 21.9992L22.4395 17.821H33.3398V15.5217H22.4657L32.5165 11.3707L31.6388 9.24548L21.6309 13.3788L29.3265 5.76182L27.7091 4.12764L19.9179 11.8391L24.1164 1.71279L21.9925 0.832164L17.8271 10.8785L17.8409 0.00291399L15.5416 0L15.5277 10.9285L11.3329 0.837083L9.20978 1.71964L13.375 11.7399L5.71157 4.057L4.08366 5.68078L11.7807 13.3974L1.71399 9.21956L0.832639 11.3432L10.9008 15.5217H0V17.821H10.8749L0.823633 21.9722L1.70134 24.0974L11.7088 19.9643L4.01339 27.581L5.63086 29.2151L13.4216 21.5041L9.22335 31.6298L11.3473 32.5104L15.5131 22.463Z" fill="white" fill-opacity="0.5"/>
</svg>
