<svg width="188" height="64" viewBox="0 0 188 64" fill="none" xmlns="http://www.w3.org/2000/svg">
<g clip-path="url(#clip0_10797_259)">
<path d="M64.3651 22.4583C62.4433 21.7191 60.6271 21.3495 58.9165 21.3495C57.2271 21.3495 55.9072 21.7086 54.9569 22.4266C54.0065 23.1446 53.5314 24.1372 53.5314 25.4043C53.5314 26.9459 54.3339 28.1391 55.9389 28.9838C56.6569 29.3428 57.4383 29.6807 58.283 29.9975C59.1488 30.2931 60.0147 30.631 60.8805 31.0112C61.7464 31.3913 62.5383 31.8242 63.2563 32.3099C63.9744 32.7957 64.5551 33.4714 64.9986 34.3373C65.4421 35.182 65.6638 36.2696 65.6638 37.6001C65.6638 38.9094 65.2943 40.0287 64.5551 40.9579C63.816 41.8871 62.9185 42.5206 61.8625 42.8585C60.8277 43.1753 59.6134 43.3337 58.2196 43.3337C55.6221 43.3337 53.4047 42.6896 51.5674 41.4013L51.7258 41.1479C52.4227 41.697 53.3202 42.151 54.4183 42.5101C55.5376 42.8479 56.678 43.0169 57.8395 43.0169C59.5501 43.0169 61.0072 42.6262 62.211 41.8448C63.4358 41.0423 64.0483 39.8703 64.0483 38.3286C64.0483 36.6392 63.2458 35.3193 61.6408 34.369C60.9228 33.9466 60.1308 33.5559 59.265 33.1969C58.4203 32.8379 57.565 32.4683 56.6991 32.0882C55.8333 31.6869 55.0413 31.2435 54.3233 30.7577C52.7183 29.7018 51.9158 28.2024 51.9158 26.2595C51.9158 24.7179 52.4332 23.4719 53.468 22.5216C54.5028 21.5502 56.055 21.0645 58.1246 21.0645C60.2153 21.0645 62.3377 21.4235 64.4918 22.1415L64.3651 22.4583Z" fill="white" fill-opacity="0.5"/>
<path d="M79.5907 43.302C78.7249 43.302 78.0597 43.1119 77.5951 42.7318C77.1516 42.3517 76.9193 41.9715 76.8982 41.5914L76.8665 41.0529V31.1062C76.8665 29.4378 76.4336 28.3714 75.5677 27.9068C75.1242 27.6956 74.5752 27.59 73.9205 27.59C72.5689 27.59 71.3546 28.1285 70.2776 29.2055C69.2006 30.2615 68.662 31.2118 68.662 32.0565V43.302H66.4446V27.4633H68.662V31.0745C69.0211 30.1664 69.6863 29.3217 70.6577 28.5403C71.6292 27.7378 72.6956 27.3366 73.8571 27.3366C75.0186 27.3366 75.9584 27.4527 76.6764 27.685C77.4156 27.8962 77.9541 28.2024 78.292 28.6037C78.8199 29.2583 79.0839 30.1031 79.0839 31.1379V41.0529C79.0839 41.6653 79.2001 42.1405 79.4324 42.4784C79.6858 42.7952 79.9392 42.9641 80.1926 42.9852L80.5411 43.0486H81.5231V43.302H79.5907Z" fill="white" fill-opacity="0.5"/>
<path d="M87.7739 43.4287C85.5565 43.4287 83.7509 42.7952 82.3571 41.5281C80.9633 40.261 80.2664 38.3075 80.2664 35.6677C80.2664 33.028 80.9844 30.9795 82.4204 29.5223C83.8776 28.0652 85.7149 27.3366 87.9323 27.3366C90.1708 27.3366 91.987 27.9701 93.3808 29.2372C94.7746 30.5043 95.4715 32.4578 95.4715 35.0975C95.4715 37.7373 94.7429 39.7858 93.2858 41.243C91.8497 42.7001 90.0124 43.4287 87.7739 43.4287ZM87.9957 27.59C86.3907 27.59 85.0602 28.308 84.0043 29.7441C82.9484 31.159 82.4204 33.1441 82.4204 35.6994C82.4204 38.2336 82.9061 40.1131 83.8776 41.338C84.849 42.5629 86.1372 43.1753 87.7422 43.1753C89.3472 43.1753 90.6777 42.4678 91.7336 41.0529C92.7895 39.6169 93.3175 37.6317 93.3175 35.0975C93.3175 32.5422 92.8317 30.6521 91.8603 29.4273C90.8889 28.2024 89.6006 27.59 87.9957 27.59Z" fill="white" fill-opacity="0.5"/>
<path d="M117.275 27.6534L117.465 27.4633C117.55 27.5055 117.655 27.6322 117.782 27.8434C117.93 28.0546 118.014 28.2447 118.035 28.4136C118.077 28.5826 118.099 28.7409 118.099 28.8888C118.099 29.459 117.972 30.0397 117.718 30.631L111.953 43.302H111.636L107.075 31.0428L101.5 43.302H101.183L95.2909 27.4633H97.5083L102.355 40.5777L106.916 30.6627L105.744 27.4633H107.962L112.808 40.5777L117.402 30.631C117.655 30.1875 117.782 29.6596 117.782 29.0472C117.782 28.4347 117.613 27.9701 117.275 27.6534Z" fill="white" fill-opacity="0.5"/>
<path d="M87.9326 27.207C90.1967 27.2071 92.0459 27.849 93.4678 29.1416C94.8979 30.4417 95.6006 32.4365 95.6006 35.0977C95.6006 37.7612 94.8643 39.8454 93.377 41.333C91.9142 42.8172 90.0429 43.5576 87.7734 43.5576C85.5303 43.5575 83.6921 42.9162 82.2705 41.624C80.8404 40.3239 80.1368 38.329 80.1367 35.668C80.1367 33.0046 80.862 30.9194 82.3281 29.4316L82.3291 29.4307C83.8124 27.9474 85.6839 27.207 87.9326 27.207ZM58.125 20.9355C60.2305 20.9356 62.3664 21.2967 64.5322 22.0186L64.6631 22.0625L64.6113 22.1895L64.4854 22.5059L64.4375 22.625L64.3184 22.5791C62.4087 21.8446 60.6087 21.4786 58.917 21.4785C57.2445 21.4785 55.9553 21.8342 55.0352 22.5293C54.1195 23.2211 53.6602 24.1747 53.6602 25.4043C53.6602 26.8878 54.4269 28.0411 55.9971 28.8682L56.5439 29.1318C57.1017 29.3911 57.695 29.639 58.3242 29.875C59.1936 30.1719 60.0635 30.511 60.9326 30.8926C61.805 31.2756 62.6041 31.7127 63.3291 32.2031C64.0667 32.7022 64.6603 33.3953 65.1123 34.2773H65.1133C65.5694 35.1463 65.7929 36.2563 65.793 37.5996C65.793 38.9349 65.4154 40.0837 64.6562 41.0381C63.9025 41.9857 62.9842 42.6352 61.9023 42.9814L61.9004 42.9824C60.8504 43.3038 59.6228 43.4629 58.2197 43.4629C55.6 43.4629 53.3555 42.8126 51.4932 41.5068L51.3926 41.4365L51.458 41.333L51.6162 41.0791L51.6924 40.957L51.8057 41.0469C52.4871 41.5838 53.3694 42.0312 54.4561 42.3867L54.8721 42.5039C55.8453 42.7598 56.8347 42.8877 57.8398 42.8877C59.5302 42.8876 60.9616 42.5016 62.1406 41.7363L62.3555 41.5869C63.3979 40.817 63.9188 39.7359 63.9189 38.3291C63.9189 36.7931 63.2395 35.5711 61.8604 34.6582L61.5752 34.4805C60.863 34.0615 60.0767 33.6734 59.2158 33.3164L59.2148 33.3154C58.3697 32.9562 57.5137 32.5864 56.6475 32.2061L56.6445 32.2051C55.7733 31.8013 54.9751 31.3551 54.251 30.8652V30.8643C52.6103 29.7842 51.7872 28.2448 51.7871 26.2598C51.7871 24.6859 52.3167 23.4041 53.3809 22.4268C54.4486 21.425 56.0381 20.9355 58.125 20.9355ZM73.8574 27.207C75.0231 27.2071 75.9759 27.3236 76.7109 27.5605H76.7119C77.3708 27.7488 77.8861 28.0149 78.2461 28.3652L78.3906 28.5205L78.3926 28.5225C78.943 29.205 79.2129 30.0805 79.2129 31.1377V41.0527C79.2129 41.6487 79.326 42.0934 79.5361 42.4014C79.779 42.7038 80.0022 42.8396 80.2031 42.8564L80.2158 42.8574L80.1924 42.9834L80.2158 42.8584L80.5488 42.9189H81.6523V43.4316H79.5908C78.7082 43.4316 78.0096 43.2376 77.5137 42.832L77.5107 42.8301C77.1116 42.4879 76.8614 42.1309 76.7891 41.7588L76.7695 41.5986L76.7373 41.0605V31.1064C76.7373 29.4546 76.3088 28.4544 75.5117 28.0234L75.3486 27.9531C74.9565 27.799 74.4819 27.7188 73.9209 27.7188C72.6081 27.7188 71.4253 28.2408 70.3691 29.2969L70.3682 29.2979C69.298 30.347 68.791 31.2655 68.791 32.0566V43.4316H66.3154V27.334H68.791V30.5C69.1857 29.7676 69.7801 29.0802 70.5752 28.4404C71.5677 27.6205 72.6633 27.207 73.8574 27.207ZM117.522 27.3477C117.588 27.3806 117.65 27.4386 117.707 27.5068C117.764 27.5755 117.824 27.6641 117.888 27.7695L117.992 27.9326C118.082 28.0882 118.139 28.2383 118.16 28.3818C118.205 28.5592 118.228 28.7286 118.228 28.8887C118.228 29.4784 118.096 30.0763 117.837 30.6816L117.836 30.6846L112.07 43.3555L112.036 43.4316H111.547L111.516 43.3467L107.062 31.3809L101.617 43.3555L101.583 43.4316H101.093L101.062 43.3467L95.1699 27.5088L95.1045 27.334H97.5986L97.6299 27.4189L102.367 40.2393L106.776 30.6562L105.623 27.5078L105.56 27.334H108.052L108.083 27.4189L112.821 40.2402L117.284 30.5771L117.289 30.5664C117.529 30.146 117.652 29.6412 117.652 29.0469C117.652 28.4584 117.491 28.0332 117.187 27.748L117.089 27.6562L117.184 27.5615L117.374 27.3721L117.439 27.3057L117.522 27.3477ZM87.9961 27.7188C86.4373 27.7188 85.1431 28.4133 84.1084 29.8203L84.1074 29.8213C83.0743 31.2058 82.5498 33.16 82.5498 35.6992C82.5498 38.221 83.0335 40.0662 83.9785 41.2578C84.9247 42.4508 86.1754 43.0459 87.7422 43.0459C89.3019 43.0459 90.5955 42.3616 91.6299 40.9756C92.6635 39.5694 93.1885 37.6151 93.1885 35.0977C93.1885 32.5544 92.7038 30.6993 91.7588 29.5078C90.8127 28.3149 89.5627 27.7189 87.9961 27.7188Z" stroke="white" stroke-opacity="0.5" stroke-width="0.258402"/>
<path d="M122.076 25.9745V27.4633H124.579V27.9751H122.076V43.302H119.859V27.9751H119.193V27.4633H119.859V25.9745C119.859 23.6726 120.355 22.0359 121.347 21.0645C122.34 20.0719 123.945 19.5651 126.162 19.5439C124.705 19.5651 123.66 20.3148 123.026 21.2862C122.393 22.2365 122.076 23.7993 122.076 25.9745Z" fill="white" fill-opacity="0.5"/>
<path d="M129.556 43.302C127.697 43.302 126.525 42.8163 126.039 41.8448C125.934 41.6337 125.881 41.4436 125.881 41.2746L126.162 19.5439L128.098 19.5756V41.0529C128.098 41.6653 128.215 42.1405 128.447 42.4784C128.7 42.7952 128.954 42.9641 129.207 42.9852L129.556 43.0486H130.538V43.302H129.556Z" fill="white" fill-opacity="0.5"/>
<path d="M143.806 43.302C142.37 43.302 141.388 43.0275 140.86 42.4784C140.374 42.0138 140.132 41.6125 140.132 41.2746V40.6094C139.097 42.4889 137.439 43.4287 135.158 43.4287C132.497 43.4287 130.987 42.225 130.628 39.8175C130.586 39.5641 130.565 39.3106 130.565 39.0572C130.565 38.7827 130.607 38.487 130.692 38.1703C130.776 37.8535 131.019 37.505 131.42 37.1249C132.223 36.3646 133.986 35.9 136.71 35.7311C137.386 35.6677 138.009 35.6361 138.579 35.6361C139.15 35.6361 139.667 35.6572 140.132 35.6994V30.441C140.089 30.4199 140.089 30.3248 140.132 30.1559C140.174 29.9658 140.132 29.7335 140.005 29.459C139.899 29.1633 139.751 28.8782 139.561 28.6037C139.371 28.3291 139.033 28.0968 138.548 27.9068C138.062 27.6956 137.428 27.59 136.647 27.59C135.866 27.59 134.947 27.7378 133.891 28.0335C132.856 28.308 132.096 28.5826 131.61 28.8571L131.484 28.6354C133.363 27.7695 135.274 27.3366 137.217 27.3366C139.392 27.3366 140.829 27.7273 141.525 28.5087C142.075 29.1211 142.349 29.7652 142.349 30.441V41.0529C142.349 41.6653 142.465 42.1405 142.697 42.4784C142.951 42.7952 143.204 42.9641 143.458 42.9852L143.806 43.0486H144.788V43.302H143.806ZM135.665 43.1753C136.784 43.1753 137.787 42.7952 138.674 42.0349C139.583 41.2535 140.068 40.5038 140.132 39.7858V35.9528C139.561 35.9106 138.981 35.8895 138.389 35.8895C137.819 35.8895 137.249 35.9212 136.679 35.9845C135.074 36.1746 134.028 36.5336 133.543 37.0616C133.057 37.5895 132.814 38.3181 132.814 39.2473C132.814 39.4162 132.825 39.6063 132.846 39.8175C133.036 42.056 133.976 43.1753 135.665 43.1753Z" fill="white" fill-opacity="0.5"/>
<path d="M147.482 19.5439V35.3193L154.451 27.4633H154.767L149.604 33.2919L156.415 43.302H154.197L148.337 34.6857L147.482 35.6677V43.302H145.264V19.5439H147.482Z" fill="white" fill-opacity="0.5"/>
<path d="M158.077 35.5727C158.077 38.1914 158.531 40.1131 159.439 41.338C160.368 42.5629 161.583 43.1753 163.082 43.1753C165.194 43.1753 167.074 42.8585 168.721 42.225L168.816 42.4467C167.126 43.1014 165.215 43.4287 163.082 43.4287C160.97 43.4287 159.249 42.7952 157.919 41.5281C156.588 40.261 155.923 38.3075 155.923 35.6677C155.923 33.028 156.62 30.9795 158.014 29.5223C159.408 28.0652 161.182 27.3366 163.336 27.3366C165.067 27.3366 166.524 27.854 167.707 28.8888C168.89 29.9236 169.481 31.4547 169.481 33.482C169.481 33.5876 169.481 33.6932 169.481 33.7988H158.172C158.109 34.369 158.077 34.9603 158.077 35.5727ZM167.327 33.5454C167.306 31.518 166.915 30.0186 166.155 29.0472C165.395 28.0757 164.413 27.59 163.209 27.59C162.005 27.59 160.928 28.118 159.978 29.1739C159.049 30.2298 158.457 31.687 158.204 33.5454H167.327Z" fill="white" fill-opacity="0.5"/>
<path d="M137.218 27.207C138.312 27.2071 139.227 27.3055 139.96 27.5049C140.692 27.7042 141.251 28.0072 141.622 28.4229C142.187 29.0535 142.479 29.7274 142.479 30.4414V41.0527C142.479 41.6462 142.59 42.0896 142.799 42.3975L142.889 42.5039C143.068 42.7019 143.236 42.809 143.392 42.8447L143.469 42.8564L143.481 42.8574L143.48 42.8584L143.813 42.9189H144.917V43.4316H143.807C142.363 43.4316 141.333 43.1576 140.767 42.5684V42.5674C140.28 42.1011 140.002 41.6683 140.002 41.2744V41.0742C139.511 41.8341 138.904 42.4232 138.176 42.8359C137.324 43.3188 136.317 43.5576 135.158 43.5576C133.809 43.5576 132.734 43.2529 131.949 42.627C131.163 42.0002 130.684 41.0649 130.501 39.8389L130.473 39.6436C130.448 39.4483 130.436 39.253 130.436 39.0576C130.436 38.7699 130.481 38.4623 130.567 38.1367C130.661 37.7861 130.923 37.4176 131.331 37.0312C131.755 36.6295 132.421 36.3157 133.312 36.0811C134.203 35.8461 135.333 35.6874 136.698 35.6025L137.198 35.5605C137.688 35.5247 138.148 35.5068 138.579 35.5068C139.095 35.5068 139.57 35.525 140.002 35.5596V30.4834C139.996 30.4736 139.99 30.4646 139.986 30.4551C139.974 30.421 139.971 30.385 139.971 30.3535C139.971 30.2903 139.984 30.2124 140.006 30.125C140.038 29.9744 140.008 29.7733 139.888 29.5127L139.883 29.5029L140.005 29.459L139.883 29.502C139.781 29.2178 139.639 28.9424 139.455 28.6768C139.286 28.4324 138.975 28.2128 138.501 28.0273L138.496 28.0254C138.033 27.8239 137.419 27.7188 136.647 27.7188C135.882 27.7188 134.975 27.8646 133.926 28.1582H133.924C132.892 28.432 132.145 28.7035 131.674 28.9697L131.562 29.0332L131.498 28.9209L131.371 28.6992L131.302 28.5771L131.43 28.5176C133.325 27.6445 135.255 27.207 137.218 27.207ZM163.336 27.207C165.095 27.2071 166.583 27.7345 167.792 28.792C169.01 29.858 169.61 31.4294 169.61 33.4824V33.9277H158.29C158.235 34.4574 158.206 35.0054 158.206 35.5723C158.206 38.1801 158.659 40.0681 159.542 41.2598C160.447 42.4534 161.624 43.0459 163.082 43.0459C165.181 43.0459 167.045 42.7314 168.675 42.1045L168.79 42.0596L168.84 42.1738L168.935 42.3955L168.987 42.5186L168.862 42.5674C167.156 43.2287 165.228 43.5576 163.082 43.5576C160.943 43.5576 159.188 42.9152 157.83 41.6221C156.465 40.3216 155.794 38.3274 155.794 35.668C155.794 33.0056 156.497 30.9205 157.92 29.4326C159.34 27.9481 161.149 27.207 163.336 27.207ZM147.61 19.415V34.9785L154.354 27.3779L154.393 27.334H155.055L154.864 27.5488L149.767 33.3018L156.521 43.2295L156.659 43.4316H154.129L154.09 43.375L148.324 34.8965L147.61 35.7168V43.4316H145.135V19.415H147.61ZM138.39 36.0186C137.824 36.0186 137.259 36.0495 136.693 36.1123C135.897 36.2067 135.244 36.3432 134.733 36.5186C134.221 36.6945 133.86 36.9075 133.638 37.1494C133.18 37.6471 132.943 38.3407 132.943 39.2471C132.943 39.3291 132.946 39.4167 132.951 39.5098L132.975 39.8047V39.8066C133.069 40.9126 133.346 41.722 133.792 42.2529C134.233 42.7786 134.852 43.0459 135.665 43.0459C136.752 43.0459 137.725 42.6776 138.59 41.9365C139.483 41.1679 139.939 40.451 140.002 39.7861V36.0732C139.474 36.037 138.936 36.0186 138.39 36.0186ZM163.209 27.7188C162.049 27.7188 161.005 28.2267 160.074 29.2607L160.073 29.2598C159.19 30.2635 158.615 31.6458 158.354 33.416H167.194C167.158 31.4675 166.771 30.0453 166.053 29.127C165.316 28.186 164.372 27.7188 163.209 27.7188ZM128.228 41.0527C128.228 41.6487 128.341 42.0934 128.551 42.4014C128.794 42.7038 129.017 42.8397 129.218 42.8564L129.23 42.8574V42.8584L129.563 42.9189H130.667V43.4316H129.556C127.685 43.4316 126.444 42.9428 125.924 41.9023C125.813 41.68 125.752 41.4697 125.752 41.2744V41.2734L126.031 19.6787C124.693 19.7412 123.729 20.4454 123.135 21.3564L123.134 21.3574C122.522 22.2746 122.205 23.8054 122.205 25.9746V27.334H124.708V28.1045H122.205V43.4316H119.729V28.1045H119.064V27.334H119.729V25.9746C119.729 23.6597 120.227 21.9793 121.257 20.9717C122.264 19.9648 123.867 19.4581 126.034 19.4189L126.035 19.4131L126.164 19.415L128.101 19.4463L128.228 19.4482V41.0527Z" stroke="white" stroke-opacity="0.5" stroke-width="0.258402"/>
<path d="M172.404 19.2114V20.0482H171.453V22.5944H170.55V20.0482H169.598V19.2114H172.404Z" fill="white" fill-opacity="0.5"/>
<path d="M176.113 19.1606V22.6096H175.21V20.9358L174.548 21.722H174.277L173.616 20.9358V22.6096H172.713V19.1606H173.031L174.413 20.6315L175.794 19.1606H176.113Z" fill="white" fill-opacity="0.5"/>
<path fill-rule="evenodd" clip-rule="evenodd" d="M26.8427 37.7916L26.8289 48.6684L29.1282 48.6713L29.1421 37.7438L33.3365 47.8343L35.4596 46.9517L31.2941 36.9306L38.9581 44.6141L40.586 42.9903L32.8891 35.2738L42.9555 39.4515L43.8368 37.3278L33.7691 33.1496H44.6694V30.8503H33.7952L43.8461 26.6993L42.9684 24.5741L32.9605 28.7074L40.6561 21.0904L39.0386 19.4563L31.2475 27.1677L35.446 17.0414L33.322 16.1608L29.1567 26.2071L29.1705 15.3315L26.8712 15.3286L26.8573 26.2571L22.6625 16.1657L20.5394 17.0483L24.7046 27.0685L17.0412 19.3856L15.4132 21.0094L23.1103 28.726L13.0436 24.5482L12.1622 26.6718L22.2304 30.8503H11.3296V33.1496H22.2045L12.1532 37.3008L13.0309 39.426L23.0384 35.2929L15.343 42.9096L16.9604 44.5438L24.7512 36.8327L20.5529 46.9584L22.6769 47.839L26.8427 37.7916Z" fill="white" fill-opacity="0.5"/>
</g>
<defs>
<clipPath id="clip0_10797_259">
<rect width="188" height="64" fill="white"/>
</clipPath>
</defs>
</svg>
