<svg width="164" height="64" viewBox="0 0 164 64" fill="none" xmlns="http://www.w3.org/2000/svg">
<path d="M23.1163 22.7366C24.7932 21.1356 27.0701 20.2011 29.378 20.0849C30.1678 20.0849 30.96 20.0896 31.7498 20.0825C31.7095 20.9293 31.7498 21.7784 31.7261 22.6252C31.6146 24.5179 30.9149 26.368 29.7361 27.8527C28.2039 29.8498 25.8605 31.1899 23.3724 31.5362C22.2861 31.7118 21.1832 31.6003 20.0898 31.6311C20.1087 30.699 20.0494 29.7645 20.123 28.8347C20.3364 26.5292 21.4251 24.321 23.1163 22.7366Z" fill="white" fill-opacity="0.5"/>
<path d="M32.481 20.0825C33.3277 20.092 34.1745 20.0778 35.0236 20.0873C37.1369 20.2367 39.2218 21.0479 40.8133 22.4544C42.5685 23.9605 43.771 26.1142 44.0794 28.4149C44.2146 29.4822 44.1292 30.5614 44.1813 31.6335C43.4413 31.6311 42.7037 31.6287 41.9637 31.6335C40.1444 31.5837 38.3561 30.9955 36.8333 30.004C36.1313 29.5012 35.4102 28.9912 34.8837 28.2939C33.7286 27.0036 32.9435 25.3836 32.647 23.6759C32.424 22.49 32.5142 21.2803 32.481 20.0825Z" fill="white" fill-opacity="0.5"/>
<path d="M20.0913 32.3118C20.8432 32.3545 21.5974 32.2762 22.3469 32.3592C25.5561 32.428 28.6703 34.2306 30.333 36.9748C31.2865 38.5118 31.7988 40.3334 31.7324 42.1431C31.73 42.7361 31.7395 43.3267 31.7229 43.9173C30.5322 43.8817 29.3297 43.979 28.1509 43.7489C25.5323 43.3077 23.1249 41.7494 21.6757 39.5246C20.5775 37.907 20.0296 35.9312 20.0865 33.9792C20.0865 33.4218 20.0865 32.8668 20.0913 32.3118Z" fill="white" fill-opacity="0.5"/>
<path d="M40.1741 32.5628C41.4644 32.2758 42.795 32.3232 44.1066 32.3232L44.1635 32.3802C44.1351 33.6206 44.2323 34.8754 43.9833 36.1016C43.4591 38.853 41.6375 41.3102 39.1874 42.6598C37.6623 43.5089 35.9118 43.9264 34.1685 43.9074C33.6111 43.9098 33.0514 43.8979 32.494 43.9145C32.494 42.8875 32.4513 41.8558 32.5675 40.8335C32.8379 38.3596 34.1756 36.0566 36.0992 34.5006C37.2899 33.5614 38.6893 32.8806 40.1741 32.5628Z" fill="white" fill-opacity="0.5"/>
<path d="M53.9011 39.3238C53.9011 39.7414 53.7565 40.0947 53.4675 40.3838C53.1944 40.6568 52.8491 40.7933 52.4316 40.7933C52.0301 40.7933 51.6928 40.6568 51.4198 40.3838C51.1468 40.0947 51.0103 39.7414 51.0103 39.3238V24.4361C51.0103 24.0185 51.1468 23.6732 51.4198 23.4002C51.7089 23.1111 52.0622 22.9666 52.4798 22.9666C52.8973 22.9666 53.2346 23.1111 53.4915 23.4002C53.7646 23.6732 53.9011 24.0185 53.9011 24.4361V39.3238Z" fill="white" fill-opacity="0.5"/>
<path d="M65.5041 27.9051C65.9217 27.9051 66.267 28.0496 66.54 28.3387C66.813 28.6117 66.9495 28.957 66.9495 29.3746V35.4935C66.9495 37.1959 66.4758 38.5449 65.5282 39.5406C64.5807 40.5364 63.2155 41.0342 61.4329 41.0342C59.6502 41.0342 58.2851 40.5364 57.3375 39.5406C56.406 38.5449 55.9403 37.1959 55.9403 35.4935V29.3746C55.9403 28.957 56.0768 28.6117 56.3498 28.3387C56.6228 28.0496 56.9681 27.9051 57.3857 27.9051C57.8033 27.9051 58.1486 28.0496 58.4216 28.3387C58.6946 28.6117 58.8311 28.957 58.8311 29.3746V35.4935C58.8311 36.4732 59.0479 37.2039 59.4816 37.6857C59.9152 38.1514 60.5656 38.3843 61.4329 38.3843C62.3162 38.3843 62.9746 38.1514 63.4083 37.6857C63.8419 37.2039 64.0587 36.4732 64.0587 35.4935V29.3746C64.0587 28.957 64.1952 28.6117 64.4682 28.3387C64.7413 28.0496 65.0866 27.9051 65.5041 27.9051Z" fill="white" fill-opacity="0.5"/>
<path d="M75.644 27.6642C76.9289 27.6642 77.8764 27.9773 78.4867 28.6037C79.097 29.214 79.4985 30.0089 79.6912 30.9886L79.2817 30.7718L79.4744 30.3864C79.6671 30.017 79.9642 29.6235 80.3657 29.2059C80.7672 28.7723 81.249 28.4109 81.8111 28.1219C82.3893 27.8167 83.0317 27.6642 83.7384 27.6642C84.8947 27.6642 85.77 27.9131 86.3642 28.4109C86.9745 28.9088 87.3921 29.5753 87.6169 30.4104C87.8417 31.2295 87.9542 32.1449 87.9542 33.1567V39.3238C87.9542 39.7414 87.8176 40.0947 87.5446 40.3838C87.2716 40.6568 86.9263 40.7933 86.5087 40.7933C86.0912 40.7933 85.7459 40.6568 85.4729 40.3838C85.1998 40.0947 85.0633 39.7414 85.0633 39.3238V33.1567C85.0633 32.6267 84.9991 32.153 84.8706 31.7354C84.7421 31.3018 84.5093 30.9565 84.172 30.6995C83.8347 30.4426 83.3529 30.3141 82.7266 30.3141C82.1163 30.3141 81.5943 30.4426 81.1607 30.6995C80.7271 30.9565 80.3979 31.3018 80.173 31.7354C79.9642 32.153 79.8598 32.6267 79.8598 33.1567V39.3238C79.8598 39.7414 79.7233 40.0947 79.4503 40.3838C79.1773 40.6568 78.832 40.7933 78.4144 40.7933C77.9969 40.7933 77.6516 40.6568 77.3785 40.3838C77.1055 40.0947 76.969 39.7414 76.969 39.3238V33.1567C76.969 32.6267 76.9048 32.153 76.7763 31.7354C76.6478 31.3018 76.4149 30.9565 76.0777 30.6995C75.7404 30.4426 75.2586 30.3141 74.6323 30.3141C74.022 30.3141 73.5 30.4426 73.0664 30.6995C72.6328 30.9565 72.3035 31.3018 72.0787 31.7354C71.8699 32.153 71.7655 32.6267 71.7655 33.1567V39.3238C71.7655 39.7414 71.629 40.0947 71.356 40.3838C71.083 40.6568 70.7377 40.7933 70.3201 40.7933C69.9025 40.7933 69.5572 40.6568 69.2842 40.3838C69.0112 40.0947 68.8747 39.7414 68.8747 39.3238V29.3746C68.8747 28.957 69.0112 28.6117 69.2842 28.3387C69.5572 28.0496 69.9025 27.9051 70.3201 27.9051C70.7377 27.9051 71.083 28.0496 71.356 28.3387C71.629 28.6117 71.7655 28.957 71.7655 29.3746V30.4104L71.4042 30.3382C71.5487 30.0651 71.7495 29.7761 72.0064 29.4709C72.2634 29.1497 72.5766 28.8526 72.9459 28.5796C73.3153 28.3066 73.7249 28.0897 74.1745 27.9291C74.6242 27.7525 75.1141 27.6642 75.644 27.6642Z" fill="white" fill-opacity="0.5"/>
<path d="M92.6006 39.3238C92.6006 39.7414 92.4641 40.0947 92.191 40.3838C91.918 40.6568 91.5727 40.7933 91.1552 40.7933C90.7376 40.7933 90.3923 40.6568 90.1193 40.3838C89.8463 40.0947 89.7097 39.7414 89.7097 39.3238V29.3746C89.7097 28.957 89.8463 28.6117 90.1193 28.3387C90.3923 28.0496 90.7376 27.9051 91.1552 27.9051C91.5727 27.9051 91.918 28.0496 92.191 28.3387C92.4641 28.6117 92.6006 28.957 92.6006 29.3746V39.3238ZM91.1311 26.3392C90.585 26.3392 90.1996 26.2509 89.9747 26.0742C89.7499 25.8975 89.6375 25.5844 89.6375 25.1347V24.677C89.6375 24.2112 89.7579 23.898 89.9988 23.7374C90.2558 23.5608 90.6412 23.4724 91.1552 23.4724C91.7173 23.4724 92.1107 23.5608 92.3356 23.7374C92.5604 23.9141 92.6728 24.2273 92.6728 24.677V25.1347C92.6728 25.6004 92.5524 25.9216 92.3115 26.0983C92.0706 26.2589 91.6771 26.3392 91.1311 26.3392Z" fill="white" fill-opacity="0.5"/>
<path d="M101.257 27.6642C102.445 27.6642 103.345 27.9131 103.955 28.4109C104.581 28.9088 105.007 29.5753 105.232 30.4104C105.473 31.2295 105.593 32.1449 105.593 33.1567V39.3238C105.593 39.7414 105.457 40.0947 105.184 40.3838C104.911 40.6568 104.565 40.7933 104.148 40.7933C103.73 40.7933 103.385 40.6568 103.112 40.3838C102.839 40.0947 102.702 39.7414 102.702 39.3238V33.1567C102.702 32.6267 102.63 32.153 102.485 31.7354C102.357 31.3018 102.116 30.9565 101.763 30.6995C101.409 30.4426 100.904 30.3141 100.245 30.3141C99.6027 30.3141 99.0566 30.4426 98.6069 30.6995C98.1733 30.9565 97.8361 31.3018 97.5952 31.7354C97.3703 32.153 97.2579 32.6267 97.2579 33.1567V39.3238C97.2579 39.7414 97.1214 40.0947 96.8484 40.3838C96.5753 40.6568 96.23 40.7933 95.8125 40.7933C95.3949 40.7933 95.0496 40.6568 94.7766 40.3838C94.5036 40.0947 94.3671 39.7414 94.3671 39.3238V29.3746C94.3671 28.957 94.5036 28.6117 94.7766 28.3387C95.0496 28.0496 95.3949 27.9051 95.8125 27.9051C96.23 27.9051 96.5753 28.0496 96.8484 28.3387C97.1214 28.6117 97.2579 28.957 97.2579 29.3746V30.4104L96.8965 30.3382C97.0411 30.0651 97.2499 29.7761 97.5229 29.4709C97.7959 29.1497 98.1171 28.8526 98.4865 28.5796C98.8559 28.3066 99.2734 28.0897 99.7392 27.9291C100.205 27.7525 100.711 27.6642 101.257 27.6642Z" fill="white" fill-opacity="0.5"/>
<path d="M119.896 34.3612C119.896 35.6782 119.598 36.8425 119.004 37.8543C118.426 38.8501 117.639 39.629 116.643 40.1911C115.664 40.7532 114.564 41.0342 113.343 41.0342C112.122 41.0342 111.014 40.7532 110.019 40.1911C109.039 39.629 108.252 38.8501 107.658 37.8543C107.08 36.8425 106.79 35.6782 106.79 34.3612C106.79 33.0443 107.08 31.888 107.658 30.8922C108.252 29.8805 109.039 29.0935 110.019 28.5314C111.014 27.9532 112.122 27.6642 113.343 27.6642C114.564 27.6642 115.664 27.9532 116.643 28.5314C117.639 29.0935 118.426 29.8805 119.004 30.8922C119.598 31.888 119.896 33.0443 119.896 34.3612ZM117.005 34.3612C117.005 33.5422 116.836 32.8355 116.499 32.2413C116.178 31.631 115.736 31.1572 115.174 30.82C114.628 30.4827 114.018 30.3141 113.343 30.3141C112.669 30.3141 112.05 30.4827 111.488 30.82C110.942 31.1572 110.5 31.631 110.163 32.2413C109.842 32.8355 109.681 33.5422 109.681 34.3612C109.681 35.1642 109.842 35.8709 110.163 36.4812C110.5 37.0754 110.942 37.5412 111.488 37.8784C112.05 38.2157 112.669 38.3843 113.343 38.3843C114.018 38.3843 114.628 38.2157 115.174 37.8784C115.736 37.5412 116.178 37.0754 116.499 36.4812C116.836 35.8709 117.005 35.1642 117.005 34.3612Z" fill="white" fill-opacity="0.5"/>
<path d="M130.67 27.9051C131.088 27.9051 131.433 28.0496 131.706 28.3387C131.979 28.6117 132.116 28.957 132.116 29.3746V35.4935C132.116 37.1959 131.642 38.5449 130.694 39.5406C129.747 40.5364 128.382 41.0342 126.599 41.0342C124.816 41.0342 123.451 40.5364 122.504 39.5406C121.572 38.5449 121.106 37.1959 121.106 35.4935V29.3746C121.106 28.957 121.243 28.6117 121.516 28.3387C121.789 28.0496 122.134 27.9051 122.552 27.9051C122.969 27.9051 123.315 28.0496 123.588 28.3387C123.861 28.6117 123.997 28.957 123.997 29.3746V35.4935C123.997 36.4732 124.214 37.2039 124.648 37.6857C125.081 38.1514 125.732 38.3843 126.599 38.3843C127.482 38.3843 128.141 38.1514 128.574 37.6857C129.008 37.2039 129.225 36.4732 129.225 35.4935V29.3746C129.225 28.957 129.361 28.6117 129.634 28.3387C129.907 28.0496 130.253 27.9051 130.67 27.9051Z" fill="white" fill-opacity="0.5"/>
<path d="M133.294 38.7938C133.133 38.569 133.061 38.2799 133.077 37.9266C133.093 37.5733 133.302 37.2681 133.703 37.0112C133.96 36.8506 134.233 36.7863 134.523 36.8184C134.812 36.8345 135.093 36.979 135.366 37.2521C135.831 37.7178 136.321 38.0792 136.835 38.3361C137.349 38.5931 137.992 38.7216 138.762 38.7216C139.003 38.7055 139.268 38.6734 139.557 38.6252C139.846 38.561 140.095 38.4325 140.304 38.2398C140.529 38.031 140.641 37.7178 140.641 37.3003C140.641 36.9469 140.521 36.6659 140.28 36.4571C140.039 36.2483 139.718 36.0716 139.316 35.9271C138.931 35.7826 138.497 35.6461 138.016 35.5176C137.518 35.373 137.004 35.2124 136.474 35.0358C135.96 34.8591 135.486 34.6343 135.052 34.3612C134.619 34.0722 134.266 33.6947 133.993 33.229C133.719 32.7633 133.583 32.1771 133.583 31.4704C133.583 30.6674 133.808 29.9848 134.258 29.4227C134.707 28.8606 135.285 28.427 135.992 28.1219C136.715 27.8167 137.47 27.6642 138.256 27.6642C138.754 27.6642 139.276 27.7284 139.822 27.8569C140.368 27.9693 140.89 28.162 141.388 28.435C141.886 28.692 142.304 29.0373 142.641 29.4709C142.818 29.7118 142.922 30.0009 142.954 30.3382C142.986 30.6754 142.834 30.9806 142.496 31.2536C142.255 31.4463 141.974 31.5347 141.653 31.5186C141.332 31.4865 141.067 31.3741 140.858 31.1813C140.585 30.828 140.216 30.547 139.75 30.3382C139.3 30.1294 138.778 30.025 138.184 30.025C137.943 30.025 137.678 30.0571 137.389 30.1214C137.116 30.1695 136.875 30.29 136.667 30.4827C136.458 30.6594 136.353 30.9485 136.353 31.35C136.353 31.7193 136.474 32.0165 136.715 32.2413C136.956 32.4501 137.277 32.6267 137.678 32.7713C138.096 32.8998 138.538 33.0282 139.003 33.1567C139.485 33.2852 139.975 33.4378 140.473 33.6144C140.971 33.7911 141.428 34.024 141.846 34.3131C142.264 34.6021 142.601 34.9796 142.858 35.4453C143.115 35.895 143.243 36.4732 143.243 37.1798C143.243 37.9989 143.002 38.6975 142.52 39.2757C142.039 39.8538 141.436 40.2955 140.714 40.6006C139.991 40.8897 139.252 41.0342 138.497 41.0342C137.55 41.0342 136.602 40.8736 135.655 40.5524C134.707 40.2152 133.92 39.629 133.294 38.7938Z" fill="white" fill-opacity="0.5"/>
</svg>
