<svg width="174" height="48" viewBox="0 0 174 48" fill="none" xmlns="http://www.w3.org/2000/svg">
<path d="M40.8662 32.8333V14.064H44.2983L53.1199 27.2829V14.064H56.552V32.8333H53.1199L44.2983 19.6411V32.8333H40.8662Z" fill="white" fill-opacity="0.5"/>
<path d="M65.2316 33.1551C63.8909 33.1551 62.7022 32.8691 61.6654 32.297C60.6286 31.725 59.8153 30.9206 59.2254 29.8838C58.6355 28.8471 58.3405 27.6494 58.3405 26.2908C58.3405 24.9144 58.6266 23.69 59.1986 22.6174C59.7885 21.5449 60.5929 20.7137 61.6118 20.1238C62.6486 19.516 63.8641 19.2121 65.2584 19.2121C66.5633 19.2121 67.7163 19.4981 68.7173 20.0702C69.7183 20.6422 70.4959 21.4287 71.0501 22.4297C71.6221 23.4129 71.9081 24.5122 71.9081 25.7278C71.9081 25.9244 71.8992 26.13 71.8813 26.3445C71.8813 26.559 71.8723 26.7824 71.8545 27.0148H61.7458C61.8173 28.0516 62.1749 28.8649 62.8184 29.4548C63.4798 30.0447 64.2752 30.3397 65.2048 30.3397C65.9019 30.3397 66.4829 30.1877 66.9476 29.8838C67.4303 29.5621 67.7878 29.1509 68.0202 28.6504H71.5059C71.2556 29.4906 70.8356 30.2592 70.2457 30.9564C69.6737 31.6356 68.9586 32.1719 68.1006 32.5652C67.2605 32.9584 66.3041 33.1551 65.2316 33.1551ZM65.2584 22.0007C64.4182 22.0007 63.6764 22.242 63.0329 22.7247C62.3894 23.1894 61.9782 23.9045 61.7995 24.8697H68.4224C68.3687 23.9938 68.047 23.2967 67.4571 22.7783C66.8672 22.2599 66.1343 22.0007 65.2584 22.0007Z" fill="white" fill-opacity="0.5"/>
<path d="M71.2774 32.8333L76.1038 26.1836L71.2774 19.5339H74.9508L78.3293 24.253L81.6809 19.5339H85.3812L80.528 26.1836L85.3812 32.8333H81.6809L78.3293 28.1142L74.9508 32.8333H71.2774Z" fill="white" fill-opacity="0.5"/>
<path d="M92.1528 32.8333C90.7585 32.8333 89.6413 32.4937 88.8011 31.8144C87.961 31.1351 87.5409 29.9285 87.5409 28.1946V22.4029H85.2618V19.5339H87.5409L87.9431 15.9677H90.973V19.5339H94.566V22.4029H90.973V28.2214C90.973 28.8649 91.1071 29.3118 91.3752 29.5621C91.6612 29.7945 92.1439 29.9106 92.8231 29.9106H94.4856V32.8333H92.1528Z" fill="white" fill-opacity="0.5"/>
<path d="M96.1721 32.8333V19.5339H99.202L99.4969 21.3304C99.9259 20.6869 100.489 20.1774 101.186 19.802C101.901 19.4088 102.723 19.2121 103.653 19.2121C105.709 19.2121 107.166 20.0076 108.024 21.5985C108.506 20.8656 109.15 20.2847 109.954 19.8556C110.776 19.4266 111.67 19.2121 112.635 19.2121C114.369 19.2121 115.701 19.7305 116.631 20.7673C117.56 21.8041 118.025 23.3235 118.025 25.3256V32.8333H114.593V25.6473C114.593 24.5033 114.369 23.6274 113.923 23.0196C113.493 22.4119 112.823 22.108 111.912 22.108C110.982 22.108 110.231 22.4476 109.659 23.1269C109.105 23.8061 108.828 24.7536 108.828 25.9691V32.8333H105.396V25.6473C105.396 24.5033 105.172 23.6274 104.726 23.0196C104.279 22.4119 103.59 22.108 102.661 22.108C101.749 22.108 101.007 22.4476 100.435 23.1269C99.8812 23.8061 99.6042 24.7536 99.6042 25.9691V32.8333H96.1721Z" fill="white" fill-opacity="0.5"/>
<path d="M126.324 33.1551C125.037 33.1551 123.875 32.8601 122.839 32.2702C121.82 31.6803 121.006 30.867 120.399 29.8302C119.809 28.7756 119.514 27.56 119.514 26.1836C119.514 24.8072 119.818 23.6006 120.425 22.5638C121.033 21.5091 121.846 20.6869 122.865 20.097C123.902 19.5071 125.064 19.2121 126.351 19.2121C127.62 19.2121 128.764 19.5071 129.783 20.097C130.82 20.6869 131.633 21.5091 132.223 22.5638C132.831 23.6006 133.135 24.8072 133.135 26.1836C133.135 27.56 132.831 28.7756 132.223 29.8302C131.633 30.867 130.82 31.6803 129.783 32.2702C128.746 32.8601 127.593 33.1551 126.324 33.1551ZM126.324 30.1788C127.218 30.1788 127.996 29.8481 128.657 29.1867C129.318 28.5074 129.649 27.5064 129.649 26.1836C129.649 24.8608 129.318 23.8687 128.657 23.2073C127.996 22.528 127.227 22.1884 126.351 22.1884C125.439 22.1884 124.653 22.528 123.992 23.2073C123.348 23.8687 123.026 24.8608 123.026 26.1836C123.026 27.5064 123.348 28.5074 123.992 29.1867C124.653 29.8481 125.431 30.1788 126.324 30.1788Z" fill="white" fill-opacity="0.5"/>
<path d="M137.801 32.8333L132.921 19.5339H136.514L139.893 29.5889L143.271 19.5339H146.864L141.957 32.8333H137.801Z" fill="white" fill-opacity="0.5"/>
<path d="M153.496 33.1551C152.155 33.1551 150.966 32.8691 149.929 32.297C148.893 31.725 148.079 30.9206 147.489 29.8838C146.9 28.8471 146.605 27.6494 146.605 26.2908C146.605 24.9144 146.891 23.69 147.463 22.6174C148.053 21.5449 148.857 20.7137 149.876 20.1238C150.913 19.516 152.128 19.2121 153.522 19.2121C154.827 19.2121 155.98 19.4981 156.981 20.0702C157.982 20.6422 158.76 21.4287 159.314 22.4297C159.886 23.4129 160.172 24.5122 160.172 25.7278C160.172 25.9244 160.163 26.13 160.145 26.3445C160.145 26.559 160.136 26.7824 160.119 27.0148H150.01C150.081 28.0516 150.439 28.8649 151.082 29.4548C151.744 30.0447 152.539 30.3397 153.469 30.3397C154.166 30.3397 154.747 30.1877 155.212 29.8838C155.694 29.5621 156.052 29.1509 156.284 28.6504H159.77C159.52 29.4906 159.1 30.2592 158.51 30.9564C157.938 31.6356 157.223 32.1719 156.365 32.5652C155.525 32.9584 154.568 33.1551 153.496 33.1551ZM153.522 22.0007C152.682 22.0007 151.94 22.242 151.297 22.7247C150.653 23.1894 150.242 23.9045 150.064 24.8697H156.686C156.633 23.9938 156.311 23.2967 155.721 22.7783C155.131 22.2599 154.398 22.0007 153.522 22.0007Z" fill="white" fill-opacity="0.5"/>
<path d="M23.9424 13.699V22.1839C23.9424 23.1524 23.1574 23.9375 22.1889 23.9375L13.704 23.9375L13.704 20.4304H17.9508L13.4888 15.9684L15.9686 13.4885L20.4354 17.9553L20.4354 13.699L23.9424 13.699Z" fill="white" fill-opacity="0.5"/>
<path d="M34.3008 24.0577H25.8158C24.8474 24.0577 24.0623 24.8428 24.0623 25.8112V34.2962L27.5693 34.2962L27.5693 30.0489L32.0317 34.5113L34.5116 32.0315L30.0448 27.5648H34.3008V24.0577Z" fill="white" fill-opacity="0.5"/>
</svg>
