<svg width="188" height="64" viewBox="0 0 188 64" fill="none" xmlns="http://www.w3.org/2000/svg">
<path d="M29.2681 36.5955L38.5545 32.4624L43.8996 35.5623L44.9794 45.732L38.3925 45.6776L39.3643 38.6077L38.2305 37.9551L32.6695 42.3058L29.2681 36.5955Z" fill="white" fill-opacity="0.5"/>
<path d="M44.4937 35.1267L52.7003 41.1632L55.9397 35.3442L49.3528 32.6794V31.3742L55.9397 28.655L52.7003 22.8904L44.4937 28.927V35.1267Z" fill="white" fill-opacity="0.5"/>
<path d="M43.8996 28.4378L44.9794 18.2681L38.3925 18.3768L39.3643 25.4467L38.2305 26.0993L32.6155 21.7486L29.2681 27.4045L38.5545 31.5376L43.8996 28.4378Z" fill="white" fill-opacity="0.5"/>
<path d="M77.9147 30.7807V40.3083H81.4595V28.1662H76.297V30.7807H77.9147Z" fill="white" fill-opacity="0.5"/>
<path d="M77.8037 26.4602C78.1288 26.7999 78.6237 26.9697 79.2884 26.9697C79.9531 26.9697 80.4405 26.7999 80.7505 26.4602C81.0756 26.1055 81.2379 25.6624 81.2379 25.1308C81.2379 24.5842 81.0756 24.141 80.7505 23.8013C80.4405 23.4469 79.9531 23.2695 79.2884 23.2695C78.6237 23.2695 78.1288 23.4469 77.8037 23.8013C77.4937 24.141 77.3385 24.5842 77.3385 25.1308C77.3385 25.6624 77.4937 26.1055 77.8037 26.4602Z" fill="white" fill-opacity="0.5"/>
<path d="M65.5734 40.0423C66.5778 40.5002 67.8112 40.7293 69.2734 40.7293C70.6471 40.7293 71.8288 40.515 72.8185 40.0867C73.8083 39.6584 74.569 39.06 75.1006 38.292C75.6472 37.509 75.9206 36.6006 75.9206 35.5666C75.9206 34.5622 75.6622 33.7129 75.1452 33.0185C74.6429 32.3096 73.9414 31.7556 73.0401 31.3569C72.1392 30.9432 71.0977 30.6847 69.916 30.5814L68.6754 30.4706C67.9368 30.4114 67.4048 30.2121 67.0798 29.8723C66.7551 29.5326 66.5924 29.1337 66.5924 28.6759C66.5924 28.3213 66.6812 27.9964 66.8582 27.701C67.0356 27.3907 67.3014 27.147 67.656 26.9697C68.0253 26.7926 68.4759 26.7039 69.0076 26.7039C69.5688 26.7039 70.0341 26.8072 70.4034 27.0141C70.4847 27.0578 70.5618 27.1046 70.6346 27.1542L70.6521 27.1665C70.6792 27.1852 70.7059 27.2047 70.7316 27.2243C70.9561 27.3957 71.1348 27.5989 71.2675 27.8339C71.4595 28.1589 71.5558 28.5207 71.5558 28.9196H75.1006C75.1006 27.856 74.8569 26.9328 74.3695 26.15C73.8822 25.3523 73.1807 24.7394 72.2648 24.3108C71.3635 23.8677 70.2778 23.6461 69.0076 23.6461C67.7962 23.6461 66.7476 23.8531 65.8613 24.2666C64.975 24.6655 64.2807 25.2416 63.7787 25.9948C63.2909 26.7481 63.0473 27.6419 63.0473 28.6759C63.0473 30.1086 63.5275 31.2608 64.4877 32.1324C65.4478 33.0039 66.733 33.5061 68.3429 33.639L69.5617 33.7498C70.5511 33.8384 71.2675 34.0379 71.7107 34.348C72.1538 34.6434 72.3754 35.0496 72.3754 35.5666C72.3754 35.8042 72.3365 36.027 72.2587 36.2352C72.2009 36.3897 72.1217 36.5362 72.0211 36.6745C71.7845 36.9847 71.4374 37.2284 70.9796 37.4057C70.5218 37.5829 69.9531 37.6715 69.2734 37.6715C68.5202 37.6715 67.9072 37.5682 67.4345 37.3613C66.9617 37.1397 66.6074 36.8518 66.3708 36.4973C66.1493 36.1426 66.0387 35.7587 66.0387 35.345H62.5156C62.5156 36.3938 62.7739 37.3244 63.2909 38.1368C63.8079 38.9346 64.569 39.5697 65.5734 40.0423Z" fill="white" fill-opacity="0.5"/>
<path d="M89.3694 40.4633C88.1434 40.4633 87.1536 40.3156 86.4004 40.0202C85.6469 39.7099 85.0931 39.2004 84.7385 38.4915C84.3988 37.7675 84.229 36.7927 84.229 35.5666V30.7586H82.39V28.1662H84.229V24.8871H87.5304V28.1662H91.0756V30.7586H87.5304V35.6997C87.5304 36.2757 87.6781 36.7189 87.9736 37.0289C88.2836 37.3244 88.7193 37.4721 89.2809 37.4721H91.0756V40.4633H89.3694Z" fill="white" fill-opacity="0.5"/>
<path fill-rule="evenodd" clip-rule="evenodd" d="M95.344 40.1975C96.1414 40.552 97.0573 40.7293 98.0913 40.7293C99.1103 40.7293 100.012 40.552 100.794 40.1975C101.577 39.843 102.227 39.3481 102.744 38.713C103.261 38.0777 103.608 37.354 103.785 36.5416H100.529C100.381 36.9108 100.1 37.2211 99.6866 37.4721C99.273 37.7233 98.741 37.8489 98.0913 37.8489C97.6888 37.8489 97.3288 37.8012 97.012 37.706C96.7708 37.6335 96.5546 37.5335 96.363 37.4057C95.9198 37.1103 95.5948 36.6966 95.3882 36.1649C95.3308 36.0135 95.2815 35.8551 95.2401 35.6901C95.198 35.5229 95.1641 35.349 95.1384 35.1679H104.007V33.9714C104.007 32.8635 103.771 31.8443 103.298 30.9138C102.825 29.9682 102.138 29.2076 101.238 28.6315C100.351 28.0406 99.258 27.7452 97.9582 27.7452C96.9685 27.7452 96.0822 27.9225 95.2994 28.277C94.5315 28.6167 93.8889 29.082 93.3719 29.6728C92.8549 30.2637 92.456 30.9359 92.1752 31.6893C91.9094 32.4277 91.7767 33.2032 91.7767 34.0156V34.4587C91.7767 35.2417 91.9094 36.0097 92.1752 36.7631C92.456 37.5017 92.8549 38.1737 93.3719 38.7794C93.9036 39.3703 94.5608 39.843 95.344 40.1975ZM95.1995 32.977C95.2094 32.93 95.2198 32.8838 95.2312 32.8383C95.2619 32.7131 95.2972 32.593 95.3375 32.4783C95.3604 32.413 95.3846 32.3493 95.4103 32.2874C95.6319 31.7408 95.9569 31.3273 96.3851 31.0467C96.5453 30.9418 96.7187 30.8565 96.9053 30.7908C97.2186 30.6808 97.5697 30.6256 97.9582 30.6256C98.5641 30.6256 99.0661 30.7661 99.465 31.0467C99.8785 31.3125 100.189 31.7039 100.396 32.2209C100.412 32.2626 100.428 32.3051 100.444 32.3481C100.468 32.4166 100.491 32.4869 100.512 32.559C100.543 32.6662 100.571 32.7771 100.595 32.8919C100.612 32.9764 100.627 33.0629 100.641 33.1516H95.1656C95.1759 33.0924 95.1873 33.0342 95.1995 32.977Z" fill="white" fill-opacity="0.5"/>
<path d="M105.47 40.3083V28.1662H108.284V31.2244C108.322 31.0426 108.366 30.8681 108.415 30.7008C108.456 30.5598 108.501 30.4239 108.55 30.2933C108.86 29.4661 109.325 28.8458 109.946 28.4321C110.566 28.0037 111.327 27.7896 112.228 27.7896H112.383C113.299 27.7896 114.059 28.0037 114.665 28.4321C115.285 28.8458 115.751 29.4661 116.061 30.2933L116.085 30.3557L116.106 30.4128C116.12 30.3725 116.135 30.3327 116.15 30.2933C116.475 29.4661 116.947 28.8458 117.568 28.4321C118.188 28.0037 118.949 27.7896 119.85 27.7896H120.005C120.921 27.7896 121.689 28.0037 122.309 28.4321C122.944 28.8458 123.425 29.4661 123.749 30.2933C124.074 31.1205 124.237 32.1545 124.237 33.3953V40.3083H120.692V33.1958C120.692 32.5311 120.515 31.992 120.16 31.5785C119.82 31.1648 119.333 30.958 118.698 30.958C118.063 30.958 117.56 31.1723 117.191 31.6006C116.822 32.0141 116.637 32.5681 116.637 33.2624V40.3083H113.07V33.1958C113.07 32.5311 112.893 31.992 112.538 31.5785C112.198 31.1648 111.718 30.958 111.098 30.958C110.448 30.958 109.938 31.1723 109.569 31.6006C109.2 32.0141 109.015 32.5681 109.015 33.2624V40.3083H105.47Z" fill="white" fill-opacity="0.5"/>
<path fill-rule="evenodd" clip-rule="evenodd" d="M133.707 37.9687V40.3083H136.521V32.8635C136.521 31.7408 136.299 30.8251 135.856 30.116C135.413 29.3922 134.763 28.8531 133.906 28.4986C133.064 28.1441 132.023 27.9668 130.782 27.9668C130.513 27.9668 130.232 27.9696 129.94 27.9755C129.767 27.9791 129.589 27.9836 129.408 27.9889C128.921 28.0037 128.448 28.0258 127.99 28.0555L127.641 28.079C127.461 28.0915 127.292 28.1038 127.133 28.1163C127.014 28.1256 126.901 28.1348 126.794 28.1441V31.1353C127.252 31.1057 127.761 31.0761 128.323 31.0467C128.48 31.0385 128.635 31.0308 128.79 31.0237C129.013 31.0133 129.233 31.0044 129.451 30.9965C129.623 30.9903 129.793 30.9848 129.962 30.9801C130.494 30.9653 130.922 30.958 131.248 30.958C131.897 30.958 132.37 31.113 132.665 31.4233C132.961 31.7335 133.109 32.1988 133.109 32.8192V32.8635H130.915C129.837 32.8635 128.884 33.0039 128.057 33.2845C127.23 33.5503 126.587 33.9714 126.129 34.5474C125.671 35.1088 125.442 35.8326 125.442 36.7189C125.442 37.5313 125.627 38.233 125.996 38.8238C126.365 39.3999 126.875 39.843 127.525 40.1531C128.19 40.4633 128.958 40.6185 129.829 40.6185C130.671 40.6185 131.38 40.4633 131.956 40.1531C132.547 39.843 133.005 39.3999 133.33 38.8238C133.387 38.7268 133.441 38.626 133.49 38.5214C133.561 38.3734 133.623 38.2178 133.679 38.0547L133.707 37.9687ZM133.109 35.8105V34.8355H130.893C130.272 34.8355 129.793 34.9905 129.453 35.3008C129.128 35.5962 128.965 36.0024 128.965 36.5194C128.965 36.7628 129.006 36.984 129.087 37.1833C129.168 37.3831 129.29 37.5606 129.453 37.716C129.793 38.0114 130.272 38.1591 130.893 38.1591C131.011 38.1591 131.125 38.1532 131.235 38.1416C131.325 38.1322 131.413 38.1188 131.497 38.1015C131.66 38.0685 131.813 38.0212 131.956 37.9596C132.282 37.8119 132.547 37.5682 132.754 37.2284C132.961 36.8887 133.079 36.416 133.109 35.8105Z" fill="white" fill-opacity="0.5"/>
<path d="M138.642 40.3083V28.1662H141.456V32.174C141.591 31.0299 141.931 30.1074 142.476 29.407C143.214 28.4765 144.277 28.0112 145.666 28.0112H146.131V31.0688H145.245C144.27 31.0688 143.517 31.3346 142.985 31.8664C142.453 32.3834 142.187 33.1368 142.187 34.1264V40.3083H138.642Z" fill="white" fill-opacity="0.5"/>
<path d="M150.627 34.6361H151.801L155.634 40.3083H159.623L154.762 33.3421L158.758 28.1662H155.036L150.627 33.9396V24.1337H147.082V40.3083H150.627V34.6361Z" fill="white" fill-opacity="0.5"/>
</svg>
