<svg width="179" height="64" viewBox="0 0 179 64" fill="none" xmlns="http://www.w3.org/2000/svg">
<path fill-rule="evenodd" clip-rule="evenodd" d="M98.8891 45.6073C97.3474 45.6073 96.0594 45.2482 95.0252 44.53C94.912 44.4514 94.8019 44.3697 94.6948 44.2849V45.1764H91.2475V18.9121H95.1832V30.1637C96.1487 29.5429 97.3169 29.2325 98.688 29.2325C100.172 29.2325 101.465 29.5868 102.566 30.2954C103.667 31.004 104.52 31.976 105.123 33.2113C105.736 34.437 106.042 35.8399 106.042 37.4199C106.042 38.9712 105.741 40.3645 105.137 41.5998C104.544 42.835 103.711 43.8118 102.638 44.53C101.566 45.2482 100.316 45.6073 98.8891 45.6073ZM95.0396 34.9493C94.8097 35.6579 94.6948 36.4815 94.6948 37.4199C94.6948 38.3583 94.8097 39.1818 95.0396 39.8905C95.2694 40.5991 95.6428 41.1497 96.1599 41.5423C96.6866 41.9349 97.3857 42.1312 98.2571 42.1312C99.0998 42.1312 99.7892 41.9205 100.325 41.4992C100.862 41.0779 101.259 40.5129 101.518 39.8043C101.776 39.0861 101.905 38.2913 101.905 37.4199C101.905 36.5581 101.771 35.7728 101.503 35.0642C101.235 34.346 100.819 33.7763 100.254 33.3549C99.6982 32.924 98.9848 32.7085 98.1134 32.7085C97.2995 32.7085 96.6387 32.9049 96.1312 33.2975C95.6333 33.6901 95.2694 34.2407 95.0396 34.9493Z" fill="white" fill-opacity="0.5"/>
<path d="M84.338 33.6278C84.8264 34.1928 85.0706 34.9876 85.0706 36.0122V45.1764H88.9776V34.978C88.9776 33.2831 88.5227 31.9137 87.613 30.87C86.7129 29.8166 85.377 29.2899 83.6055 29.2899C82.5713 29.2899 81.628 29.5198 80.7758 29.9794C79.9955 30.3961 79.3589 30.9689 78.866 31.6976C78.4984 31.0363 77.9907 30.4923 77.3428 30.0656C76.5672 29.5485 75.5713 29.2899 74.3551 29.2899C73.2922 29.2899 72.3298 29.5246 71.468 29.9938C70.8167 30.3523 70.2661 30.8088 69.8161 31.363V29.6634H66.3688V45.1764H70.3045V35.7824C70.3045 34.8919 70.5487 34.1689 71.0371 33.6135C71.535 33.0485 72.191 32.766 73.0049 32.766C73.8572 32.766 74.5227 33.0533 75.0015 33.6278C75.4899 34.1928 75.7341 34.9876 75.7341 36.0122V45.1764H79.641V35.7824C79.641 35.1887 79.7512 34.6668 79.9714 34.2168C80.2012 33.7571 80.5172 33.4028 80.9194 33.1538C81.3216 32.8953 81.7956 32.766 82.3414 32.766C83.1937 32.766 83.8592 33.0533 84.338 33.6278Z" fill="white" fill-opacity="0.5"/>
<path d="M52.3714 45.0183C53.1375 45.4301 54.1286 45.636 55.3448 45.636C56.8673 45.636 58.1266 45.3056 59.1225 44.6449C59.5951 44.3343 60.0116 43.9782 60.3721 43.5767V45.1764H63.8194V29.6634H59.8837V37.5348C59.8837 38.4924 59.7736 39.268 59.5534 39.8617C59.3427 40.4459 59.0698 40.8911 58.7346 41.1976C58.3995 41.4944 58.0404 41.6955 57.6573 41.8008C57.2743 41.9062 56.9152 41.9588 56.5801 41.9588C55.7469 41.9588 55.1006 41.7721 54.6409 41.3987C54.1909 41.0252 53.8653 40.5608 53.6642 40.0054C53.4631 39.45 53.3434 38.8994 53.3051 38.3535C53.2668 37.7981 53.2476 37.3433 53.2476 36.989V29.6634H49.2832V38.3679C49.2832 38.6264 49.3024 39.0382 49.3407 39.6032C49.379 40.1682 49.4891 40.7954 49.671 41.4848C49.853 42.1647 50.1546 42.8207 50.576 43.4527C51.0069 44.0847 51.6054 44.6066 52.3714 45.0183Z" fill="white" fill-opacity="0.5"/>
<path d="M111.645 31.502C111.486 31.7105 111.343 31.9298 111.214 32.1597V29.6634H107.767V45.1764H111.702V37.2475C111.702 36.6538 111.784 36.1224 111.947 35.6531C112.109 35.1743 112.349 34.7626 112.665 34.4178C112.981 34.0635 113.369 33.781 113.828 33.5704C114.288 33.3501 114.8 33.2209 115.365 33.1826C115.94 33.1347 116.442 33.1778 116.873 33.3118V29.6634C116.404 29.6059 115.935 29.5964 115.466 29.6347C114.996 29.6634 114.542 29.7448 114.101 29.8789C113.661 30.0033 113.254 30.1805 112.88 30.4103C112.392 30.6976 111.98 31.0615 111.645 31.502Z" fill="white" fill-opacity="0.5"/>
<path fill-rule="evenodd" clip-rule="evenodd" d="M125.099 45.6073C123.51 45.6073 122.107 45.2673 120.891 44.5874C119.684 43.898 118.736 42.9547 118.047 41.7578C117.367 40.5512 117.027 39.1723 117.027 37.621C117.027 35.926 117.362 34.4514 118.032 33.1969C118.703 31.9425 119.627 30.9705 120.805 30.281C121.982 29.582 123.337 29.2325 124.87 29.2325C126.497 29.2325 127.881 29.6155 129.021 30.3816C130.16 31.1477 131.003 32.225 131.549 33.6135C132.095 35.002 132.286 36.6347 132.123 38.5115H121.231C121.353 39.4426 121.642 40.1991 122.097 40.781C122.729 41.5662 123.653 41.9588 124.87 41.9588C125.636 41.9588 126.292 41.7913 126.837 41.4561C127.383 41.121 127.8 40.6374 128.087 40.0054L131.994 41.1257C131.41 42.543 130.486 43.6442 129.222 44.4294C127.967 45.2147 126.593 45.6073 125.099 45.6073ZM127.498 33.6709C127.832 34.1245 128.056 34.7709 128.17 35.6101H121.333C121.486 34.8936 121.74 34.3046 122.097 33.8433C122.729 33.0293 123.711 32.6224 125.042 32.6224C126.181 32.6224 127 32.9719 127.498 33.6709Z" fill="white" fill-opacity="0.5"/>
<path fill-rule="evenodd" clip-rule="evenodd" d="M149.538 44.9753C150.314 45.3966 151.257 45.6073 152.368 45.6073C153.708 45.6073 154.814 45.3774 155.686 44.9178C156.38 44.5478 157.036 43.9992 157.653 43.2721V45.1764H161.072V35.6962C161.072 34.9876 161.043 34.346 160.986 33.7715C160.928 33.1969 160.747 32.6224 160.44 32.0478C159.894 31.0136 159.09 30.2858 158.027 29.8645C156.964 29.4432 155.748 29.2325 154.379 29.2325C152.511 29.2325 151.037 29.6347 149.954 30.4391C148.872 31.2434 148.135 32.2872 147.742 33.5704L151.276 34.6908C151.525 33.9821 151.961 33.489 152.583 33.2113C153.205 32.9336 153.804 32.7947 154.379 32.7947C155.413 32.7947 156.15 33.0102 156.591 33.4411C156.936 33.7795 157.147 34.2685 157.221 34.908C156.559 35.0082 155.933 35.1033 155.341 35.1935C154.335 35.3371 153.435 35.4903 152.641 35.6531C151.846 35.8159 151.161 36.0027 150.586 36.2133C149.753 36.5198 149.088 36.9028 148.59 37.3624C148.102 37.8125 147.747 38.3344 147.527 38.9281C147.307 39.5218 147.197 40.1777 147.197 40.8959C147.197 41.7578 147.393 42.5478 147.786 43.266C148.188 43.9746 148.772 44.5443 149.538 44.9753ZM155.011 42.1599C154.522 42.4089 153.919 42.5334 153.201 42.5334C152.751 42.5334 152.363 42.4664 152.037 42.3323C151.712 42.1982 151.458 42.0067 151.276 41.7578C151.104 41.4992 151.017 41.1928 151.017 40.8385C151.017 40.5799 151.07 40.3453 151.175 40.1346C151.29 39.924 151.463 39.7325 151.692 39.5601C151.932 39.3781 152.243 39.2106 152.626 39.0574C152.961 38.9329 153.349 38.818 153.79 38.7126C154.23 38.6073 154.809 38.4924 155.528 38.3679C155.989 38.2817 156.542 38.1837 157.185 38.0739C157.176 38.347 157.16 38.6557 157.136 38.9999C157.108 39.5553 156.993 40.0437 156.792 40.465C156.686 40.6853 156.485 40.9582 156.188 41.2837C155.901 41.6093 155.508 41.9014 155.011 42.1599Z" fill="white" fill-opacity="0.5"/>
<path d="M134.217 18.4812V45.1764H138.124V18.4812H134.217Z" fill="white" fill-opacity="0.5"/>
<path d="M141.282 45.1764V18.4812H145.189V45.1764H141.282Z" fill="white" fill-opacity="0.5"/>
<path fill-rule="evenodd" clip-rule="evenodd" d="M27.7219 29.7754H17.1123V34.3957C17.1123 41.2949 22.7052 46.8877 29.6043 46.8877C36.5034 46.8877 42.0963 41.2949 42.0963 34.3957V29.7754H31.1444L31.1444 22.4171C31.1444 19.4874 28.7693 17.1123 25.8396 17.1123C22.9098 17.1123 20.5348 19.4873 20.5348 22.4171L23.9572 22.4171C23.9572 21.3775 24.8 20.5348 25.8396 20.5348C26.8792 20.5348 27.7219 21.3775 27.7219 22.4171L27.7219 29.7754ZM27.7219 33.1979L27.7219 39.7005L31.1444 39.7005L31.1444 33.1979H38.6738V34.3957C38.6738 39.4047 34.6132 43.4652 29.6043 43.4652C24.5953 43.4652 20.5348 39.4047 20.5348 34.3957V33.1979H27.7219Z" fill="white" fill-opacity="0.5"/>
</svg>
